<?xml version="1.0" encoding="UTF-8"?>
<svg width="18px" height="19px" viewBox="0 0 18 19" version="1.1" xmlns="http://www.w3.org/2000/svg" xmlns:xlink="http://www.w3.org/1999/xlink">
    <!-- Generator: Sketch 52.6 (67491) - http://www.bohemiancoding.com/sketch -->
    <title>Group 4</title>
    <desc>Created with Sketch.</desc>
    <g id="Wireframes" stroke="none" stroke-width="1" fill="none" fill-rule="evenodd">
        <g id="web_03" transform="translate(-890.000000, -602.000000)" fill="#FFFFFF">
            <g id="Group-5-Copy" transform="translate(796.000000, 594.000000)">
                <g id="Group-4" transform="translate(94.000000, 8.000000)">
                    <path d="M9.70275545,0.309291751 C9.30650677,-0.104904786 8.66420659,-0.103239795 8.26606336,0.315190829 L3.52675467,5.29599046 C2.75675112,6.09236701 3.91134819,7.28650954 4.68135174,6.49013303 L7.89691973,3.16158514 C8.05520277,2.99774075 8.18351655,3.05526586 8.18351655,3.28761889 L8.18351655,12.4709927 C8.18351655,12.9385162 8.54595293,13.3175188 9.00006327,13.3175188 C9.45102958,13.3175188 9.81660999,12.9393301 9.81660999,12.4709927 L9.81660999,3.28761889 C9.81660999,3.054168 9.94540736,2.99824133 10.1032068,3.16158514 L13.3187748,6.49013303 C14.0883701,7.28650954 15.2433754,6.09236701 14.4733719,5.29599046 L9.70275545,0.309291751 Z" id="Path" transform="translate(9.000038, 6.658759) rotate(-180.000000) translate(-9.000038, -6.658759) "></path>
                    <path d="M16.3636364,16.8901428 C16.3636364,17.1226372 16.1774292,17.3111111 15.9543739,17.3111111 L2.04562612,17.3111111 C1.81959668,17.3111111 1.63636364,17.1198291 1.63636364,16.8901428 L1.63636364,13.9333333 C1.63636364,13.4669595 1.27005116,13.0888889 0.818181818,13.0888889 C0.366312477,13.0888889 1.42108547e-14,13.4669595 1.42108547e-14,13.9333333 L1.42108547e-14,17.7352766 C1.42108547e-14,18.4322168 0.553672432,19 1.23086258,19 L16.7691374,19 C17.4474468,19 18,18.4363372 18,17.7352766 L18,13.9333333 C18,13.4669595 17.6336875,13.0888889 17.1818182,13.0888889 C16.7299488,13.0888889 16.3636364,13.4669595 16.3636364,13.9333333 L16.3636364,16.8901428 Z" id="Path"></path>
                </g>
            </g>
        </g>
    </g>
</svg>