<?xml version="1.0" encoding="utf-8"?>
<!-- Generator: Adobe Illustrator 22.0.1, SVG Export Plug-In . SVG Version: 6.00 Build 0)  -->
<svg version="1.1" id="Layer_1" xmlns="http://www.w3.org/2000/svg" xmlns:xlink="http://www.w3.org/1999/xlink" x="0px" y="0px"
	 viewBox="0 0 23.6 42.8" style="enable-background:new 0 0 23.6 42.8;" xml:space="preserve">
<style type="text/css">
	.st0{fill:#006FCF;}
</style>
<title>arrow_carousel_left</title>
<path class="st0" d="M23,39.5l-18.1-18l18-18c0.8-0.7,0.8-2,0.1-2.7c0,0,0,0-0.1-0.1c-0.8-0.8-2-0.8-2.8,0L0.6,20
	c-0.8,0.7-0.8,2-0.1,2.7c0,0,0,0,0.1,0.1l19.5,19.5c0.4,0.4,0.9,0.6,1.5,0.5c1.1,0,2-0.9,2-2C23.5,40.3,23.3,39.8,23,39.5z"/>
</svg>
