<?xml version="1.0" encoding="utf-8"?>
<!-- Generator: Adobe Illustrator 22.0.1, SVG Export Plug-In . SVG Version: 6.00 Build 0)  -->
<svg version="1.1" id="Layer_1" xmlns="http://www.w3.org/2000/svg" xmlns:xlink="http://www.w3.org/1999/xlink" x="0px" y="0px"
	 viewBox="0 0 23.5 42.9" style="enable-background:new 0 0 23.5 42.9;" xml:space="preserve">
<style type="text/css">
	.st0{fill:#006FCF;}
</style>
<title>arrow_carousel_right</title>
<path class="st0" d="M22.9,20.1L3.4,0.6c-0.8-0.8-2-0.8-2.8,0c-0.8,0.7-0.8,2-0.1,2.7c0,0,0,0,0.1,0.1l18,18.1l-18,18
	c-0.8,0.8-0.8,2.1,0,2.8c0.4,0.4,0.9,0.6,1.4,0.6c0.5,0,1.1-0.2,1.4-0.5L23,22.9c0.3-0.4,0.5-0.8,0.5-1.4
	C23.5,21,23.3,20.5,22.9,20.1z"/>
</svg>
