<?xml version="1.0" encoding="UTF-8"?>
<svg width="18px" height="24px" viewBox="0 0 18 24" version="1.1" xmlns="http://www.w3.org/2000/svg" xmlns:xlink="http://www.w3.org/1999/xlink">
    <!-- Generator: Sketch 51.3 (57544) - http://www.bohemiancoding.com/sketch -->
    <title>Shape</title>
    <desc>Created with Sketch.</desc>
    <defs></defs>
    <g id="Wireframes" stroke="none" stroke-width="1" fill="none" fill-rule="evenodd">
        <g id="web_01" transform="translate(-1146.000000, -72.000000)" fill="#FFFFFF" fill-rule="nonzero">
            <g id="Group-15" transform="translate(0.000000, 62.000000)">
                <g id="Group-3" transform="translate(1146.000000, 10.000000)">
                    <path d="M16.5000025,6 C16.5000025,5.17499 15.8249837,4.5 15.0000051,4.5 L13.4999771,4.5 C13.4999771,2.0188 11.481426,0 8.99998475,0 C6.51854345,0 4.49999238,2.0188 4.49999238,4.5 L2.99999492,4.5 C2.17498631,4.5 1.49999746,5.17499 1.49999746,6 L0,22.5 C0,23.32498 0.674988856,24 1.49999746,24 L16.5000025,24 C17.3249811,24 18,23.32498 18,22.5 L16.5000025,6 Z M9,2 C10.654295,2 12,3.345705 12,5 L6,5 C6,3.345705 7.3457055,2 9,2 Z M2,23 L3.48886683,6.1399203 C3.49299022,6.093381 3.49503691,6.04669333 3.49503691,6 L4.99627393,6 L4.99627393,7.54545455 C4.99627393,7.97222152 5.33233584,8.31818182 5.74689244,8.31818182 C6.16144903,8.31818182 6.49751095,7.97222152 6.49751095,7.54545455 L6.49751095,6 L12.502459,6 L12.502459,7.54545455 C12.502459,7.97222152 12.8385209,8.31818182 13.2530775,8.31818182 C13.6676341,8.31818182 14.003696,7.97222152 14.003696,7.54545455 L14.003696,6 L15.5049636,6 C15.5049636,6.04669333 15.5070098,6.09338152 15.5111332,6.1399203 L17,23 L2,23 Z" id="Shape"></path>
                </g>
            </g>
        </g>
    </g>
</svg>