<svg xmlns="http://www.w3.org/2000/svg" width="48" height="48" viewBox="0 0 48 48">
  <g fill="none" fill-rule="evenodd">
    <rect width="48" height="48"/>
    <path fill="#000" d="M24,0 C37.254829,0 48,10.745173 48,24 C48,37.254827 37.25484,47.999998 24,47.999998 C10.74516,47.999998 0,37.25484 0,24 C0,10.74516 10.74516,0 24,0 Z M24,3 C12.42056,3 3,12.420561 3,24 C3,35.579439 12.420559,44.999998 24,44.999998 C35.579441,44.999998 45,35.57944 45,24 C45,12.42056 35.579441,3 24,3 Z M24,16.125005 C23.0335017,16.125005 22.25,15.3415033 22.25,14.375005 C22.25,13.4085067 23.0335017,12.625005 24,12.625005 C24.9664983,12.625005 25.75,13.4085067 25.75,14.375005 C25.75,15.3415033 24.9664983,16.125005 24,16.125005 Z M24,34.874998 C23.171881,34.874998 22.5,34.203119 22.5,33.374998 L22.5,19.375 C22.5,18.546391 23.171881,17.875 24,17.875 C24.828119,17.875 25.5,18.546391 25.5,19.375 L25.5,33.374998 C25.5,34.203119 24.828119,34.874998 24,34.874998 Z"/>
  </g>
</svg>
