<svg xmlns="http://www.w3.org/2000/svg" viewBox="0 0 230.05 39.15"><defs><style>.cls-1{fill:#fff;}.cls-2{fill:#006fcf;}.cls-3{fill:#00175a;}</style></defs><title>Asset 1</title><g id="Layer_2" data-name="Layer 2"><g id="Layer_1-2" data-name="Layer 1"><rect class="cls-1" width="39.15" height="39.15"/><path class="cls-2" d="M24.74,27.28l-.79-1v1H21.38V25.63a2.66,2.66,0,0,1-1.09.23h-.91v1.42H15.49l-.71-.93-.71.93H7.62V21.13H14.1l.71.93.71-.93H39.15V0H0V16.51l1.48-3.44H4L4.83,15V13.07H8l.48,1.39L9,13.07H23.14v.71a3.06,3.06,0,0,1,2-.71h4.51L30.51,15V13.07h2.67l.71,1.09V13.07h2.66v6.15H33.9l-.71-1.11v1.11H29.32l-.39-.94H27.87l-.38.94h-2.4a2.92,2.92,0,0,1-1.95-.67v.67h-4l-.79-1v1H3.64l-.38-.94H2.19l-.37.94H0V39.15H39.15V26.83a2.45,2.45,0,0,1-1.48.45Z"/><path class="cls-2" d="M28.4,14.92,29,16.51H27.76ZM27,18.45l.38-.94h2.1l.38.94h1.33l-2-4.61H27.66l-2,4.61Z"/><polygon class="cls-2" points="32.45 15.48 34.35 18.45 35.77 18.45 35.77 13.84 34.6 13.84 34.6 16.7 32.76 13.84 31.28 13.84 31.28 18.45 32.45 18.45 32.45 15.48"/><path class="cls-2" d="M2.72,14.92l.64,1.59H2.08Zm1,2.59.39.94H5.48l-2-4.61H2L0,18.45H1.3l.37-.94Z"/><polygon class="cls-2" points="11.37 18.45 11.37 13.84 9.53 13.84 8.5 16.78 7.46 13.84 5.6 13.84 5.6 18.45 6.76 18.45 6.76 15.04 7.97 18.45 9 18.45 10.21 15.04 10.21 18.45 11.37 18.45"/><polygon class="cls-2" points="15.91 14.87 15.91 13.84 12.15 13.84 12.15 18.45 15.91 18.45 15.91 17.41 13.32 17.41 13.32 16.63 15.84 16.63 15.84 15.62 13.32 15.62 13.32 14.87 15.91 14.87"/><path class="cls-2" d="M19,15.81H17.74v-.94H19a.49.49,0,0,1,.55.48c0,.26-.19.46-.55.46m1.72-.48a1.45,1.45,0,0,0-1.59-1.49H16.57v4.61h1.17V16.82h.46l1.38,1.63H21l-1.49-1.68a1.44,1.44,0,0,0,1.2-1.44"/><polygon class="cls-2" points="21.21 13.84 21.21 16.18 21.21 18.45 22.38 18.45 22.38 16.19 22.38 13.84 21.21 13.84"/><polygon class="cls-2" points="12.16 22.93 12.16 21.9 8.4 21.9 8.4 26.51 12.16 26.51 12.16 25.48 9.57 25.48 9.57 24.7 12.1 24.7 12.1 23.69 9.57 23.69 9.57 22.93 12.16 22.93"/><polygon class="cls-2" points="13.69 26.51 14.78 25.08 15.87 26.51 17.34 26.51 15.49 24.19 17.33 21.9 15.9 21.9 14.81 23.32 13.72 21.9 12.25 21.9 14.1 24.21 12.26 26.51 13.69 26.51"/><path class="cls-2" d="M20.46,23.46a.49.49,0,0,1-.54.52H18.61V22.93h1.31a.5.5,0,0,1,.54.53m-3-1.56v4.61h1.17V25H20a1.52,1.52,0,0,0,1.64-1.56A1.48,1.48,0,0,0,20,21.9Z"/><path class="cls-2" d="M24.59,23.88H23.31v-.95h1.28a.49.49,0,0,1,.54.48.48.48,0,0,1-.54.47m1.72-.49a1.46,1.46,0,0,0-1.6-1.49H22.14v4.61h1.17V24.88h.46l1.38,1.63h1.44L25.1,24.83a1.44,1.44,0,0,0,1.21-1.44"/><polygon class="cls-2" points="30.54 22.93 30.54 21.9 26.78 21.9 26.78 26.51 30.54 26.51 30.54 25.48 27.95 25.48 27.95 24.7 30.47 24.7 30.47 23.69 27.95 23.69 27.95 22.93 30.54 22.93"/><path class="cls-2" d="M33.45,25.48H31.06v1h2.38A1.44,1.44,0,0,0,35,25a1.27,1.27,0,0,0-1.44-1.33H32.51a.38.38,0,1,1,0-.76h2l.46-1H32.52a1.44,1.44,0,0,0-1.6,1.45,1.3,1.3,0,0,0,1.44,1.37h1.09a.38.38,0,1,1,0,.76"/><path class="cls-2" d="M36.73,22.93h2l.46-1H36.75a1.44,1.44,0,0,0-1.6,1.45,1.3,1.3,0,0,0,1.44,1.37h1.09a.38.38,0,1,1,0,.76H35.29v1h2.38A1.44,1.44,0,0,0,39.26,25a1.26,1.26,0,0,0-1.43-1.33h-1.1a.38.38,0,1,1,0-.76"/><path class="cls-2" d="M22.94,16.11v.07a2,2,0,0,0,2.15,2.27h.09l.48-1h-.37a1.11,1.11,0,0,1-1.18-1.24v-.07a1.1,1.1,0,0,1,1.16-1.21h1.24V13.84H25.18a2.1,2.1,0,0,0-2.24,2.27"/><path class="cls-3" d="M72.8,26.22c0,.11,0,0,0-.11S72.8,26.2,72.8,26.22Zm0,1c-.08,0,0-.39,0-.56C72.83,26.66,72.8,27,72.8,27.19Zm0-1.38c.09,0,0,.08,0,.16S72.83,25.87,72.8,25.81Zm0-.17c-.08,0,0-.19,0-.24S72.8,25.54,72.83,25.64ZM75.94,20s0-.06,0-.08c.16,0,.13-.25.25-.31s0,0,0,0c0-.16.16-.16.22-.33a.07.07,0,0,1,0,.06c0-.06.09-.08.14-.17s0,0,0-.05,0,0,0,0,.06-.11,0-.08.25-.08.17-.19a.45.45,0,0,1,.19-.22v0a0,0,0,0,0,0,0s0,0,0,0,0,0,0,0,.06,0,.08,0v0s0,0,0-.06,0,0,0,0h.08c0,.08,0,0,0,0s-.08,0-.05-.14.27-.19.38-.25,0,0,0,0,.08-.11.16-.14a.77.77,0,0,0,.33,0,2.25,2.25,0,0,0,.72.05,1.49,1.49,0,0,1,1.46,1.43,9,9,0,0,1,.16,1.85c.22,1.21,0,2.58.52,3.49a1.11,1.11,0,0,0,.66-.39c.09.09.2,0,.25-.11a.22.22,0,0,0,.17-.19h0c.14.06.2-.16.33-.16a.18.18,0,0,0,0,.16c.06,0,0-.16.14-.16-.05.05-.08.05-.08.11s0,0,.08,0c-.11.08-.11.33-.27.35s0,0,.13,0c-.13.11-.1.39-.3.44.11.08-.13.22-.11.33s-.08-.05-.11,0,.09,0,.06.08a2,2,0,0,1-2.48-.74c-.77-1.68-.3-3.66-.71-5.64-.09,0,0,.11,0,.22-.14-.06-.06-.17-.11-.28a2,2,0,0,0-.47.5s0,0,0-.06,0,.14-.11.14,0,0,0,0a.1.1,0,0,1,0,.06.07.07,0,0,0,0-.06s0,.06,0,.06-.08.16-.08.08a7.41,7.41,0,0,1-.49.71c0-.1-.12,0-.06,0a.27.27,0,0,0-.08.2c-.08-.17-.19.41-.31.49h0c0,.06,0,.14-.05.14a0,0,0,0,0,0,0s0,0,0,0v0a12.9,12.9,0,0,0-.83,1.76c-.06.19-.22.35-.25.49a2.57,2.57,0,0,0-.19.72,6,6,0,0,1-.28.6,3.92,3.92,0,0,0-.16.77c0,.19-.14.36-.17.55-.13.69-.22,1.49-.35,2.15a1,1,0,0,1,0,.63c-.25.08-.28,0-.47.08v-.08c-.58.06-1-.52-1.35-.82.06-.11,0-.28,0-.36s0,0,0,.08c0-.69,0-1.46,0-2.12,0-.16,0-.33,0-.38a49.34,49.34,0,0,1,1.32-7.79c0,.08-.06.25,0,.39s0,0,0,0,.14-.06.14-.17,0,0-.11,0,.16,0,.13-.16,0,.08,0,.08,0-.22-.08-.14a16,16,0,0,1,.66-2.61c0,.16-.06.19,0,.36-.11,0-.06.13-.06.19s.06-.11.06-.19.14-.25,0-.36a14.84,14.84,0,0,1,.49-1.87s0,.08.08.08V12.8s0,.13-.08.11A23.7,23.7,0,0,0,76,9.72c-.1.16,0,.44-.13.63,0-.25.16-.63,0-1,0,0,0,0,0,0s0,0,0-.08,0,0,0,.05,0-.14-.06-.19c.36,0,.64-.19.85,0,0,0,0,0,.06-.11s.27.14.41,0c.06.14.25.14.36.25s.11.33.17.49c0,1.84-.67,3.47-.94,5-.22.35-.19.93-.39,1.29,0,.22,0,.36,0,.55-.14,0,0,.11-.11.11a2,2,0,0,1-.2,1c-.13.93-.35,1.81-.49,2.59.19-.12.22-.34.36-.47l.08,0Zm-3.11,7.51c0,.08,0-.14,0-.16S72.83,27.43,72.83,27.46ZM73,24v.06h-.08V24Zm-.08,3.28s.08,0,.08-.06S72.89,27.21,72.89,27.27ZM73,24.54s0,0,0,0S73,24.52,73,24.54Zm0,.33c.06,0,.11-.08,0-.08s0,0,0,0Zm.11-.82s0-.06-.08-.06,0,.09,0,.09S73.08,24.05,73.13,24.05Zm0-1.82c-.08,0,0-.08,0-.19h0A.19.19,0,0,1,73.16,22.23Zm0,1.49h0Zm0-.66c0,.11,0,.16,0,.25C73.16,23.2,73.3,23.06,73.16,23.06Zm.06-1.24c.08.06,0,.11,0,.22h0C73.19,21.93,73.22,21.9,73.22,21.82Zm0,.77c0,.14-.06.28,0,.33s0-.19.08-.19-.08.16,0,.14a.88.88,0,0,1,0-.39c-.08-.05,0,.08-.08.06s0-.17,0-.17a.29.29,0,0,0-.06.22Zm.08-1s0,0-.06,0S73.3,21.52,73.3,21.55Zm-.06,1c0,.06.06.06.06.08s0-.08,0-.13S73.3,22.59,73.24,22.59Zm0,.5s.06,0,.06,0S73.24,23.06,73.24,23.09Zm.09-1.74c-.09,0,0-.13,0-.13S73.3,21.27,73.33,21.35Zm0,.91c.16.06,0-.08.08-.16s0,0,0,0,0,0-.06,0a.72.72,0,0,0,0,.19C73.3,22.32,73.33,22.32,73.33,22.26Zm0-.38s-.08.05,0,.11S73.46,21.88,73.38,21.88Zm.11-.28c-.08,0-.08,0-.11,0s0,.14,0,.14,0-.14.11-.08v-.14s0-.14,0,0,0,0-.06,0c0-.31-.11,0,0,0S73.49,21.57,73.49,21.6Zm-.08.58s0,0,0,0S73.41,22.15,73.41,22.18Zm.08-1.07c0,.05-.08.13,0,.13S73.55,21.16,73.49,21.11Zm0,.57s0,.09,0,.09S73.55,21.68,73.46,21.68Zm0-.66s0,.09.06.06S73.49,20.94,73.49,21Zm.06.14c.08,0-.14.28,0,.19C73.52,21.35,73.68,21.08,73.55,21.16Zm0-.27c.08,0,0-.11,0,0S73.55,21,73.55,20.89Zm0-.31c0,.11,0,.17,0,.25S73.66,20.61,73.57,20.58Zm.06.44c0-.11,0-.11,0-.24s0-.11,0,0S73.52,21,73.63,21Zm0-.6s-.08.11,0,.13S73.68,20.42,73.63,20.42Zm.08,0a1.34,1.34,0,0,0,0-.36c0,.16-.05.19-.05.33C73.71,20.36,73.66,20.34,73.71,20.42Zm0,0c.06.05-.11.13,0,.16S73.74,20.39,73.68,20.45Zm0-.23s0,0,.08,0S73.71,20.2,73.71,20.22Zm.08-.1s0,0,0,0S73.82,20.22,73.79,20.12Zm0-.75c0,.14-.08.47,0,.39s.14-.17,0-.25.11-.05.05-.14,0,0,0,0S73.85,19.4,73.82,19.37Zm0,.19s0,0,0,0S73.85,19.54,73.82,19.56Zm.06-.33c0-.05,0-.11,0-.19s0-.19,0,0C73.85,19,73.82,19.21,73.88,19.23Zm.08-.52c.05.06,0,.25,0,.33a.63.63,0,0,0,0-.36c.08-.05,0,.09.08.06s.05,0,0-.11-.08-.19,0-.17.05.09.08.11a.27.27,0,0,0-.08-.19.4.4,0,0,0,.08-.33,1.12,1.12,0,0,0-.16.63S74,18.68,74,18.71Zm.33-.8c-.11.06-.08-.05-.14,0s0,.08.06.13S74.29,18,74.29,17.91Zm-.06-.38s.06,0,.06,0Zm.06-.3s-.06.13,0,.13S74.34,17.23,74.29,17.23Zm.19-.77s0,.16,0,.16c-.17,0-.14.33-.19.52.05,0,.05-.08,0-.16h.14a.56.56,0,0,1,0-.22s-.06,0-.06,0h.09c0-.11,0-.14,0-.25,0,.06,0,0,0,0s0,0,0,0S74.54,16.46,74.48,16.46Zm.25-.42c0-.11-.08,0-.11-.11-.06.2-.17.31-.08.47C74.62,16.24,74.54,16.07,74.73,16Zm0-.11a.46.46,0,0,0,0-.27c0,.08,0,.11,0,.25A.12.12,0,0,1,74.7,15.93Zm0-1s0,0-.06,0S74.7,15,74.73,15Zm0,.41s0,.11,0,.17S74.81,15.41,74.73,15.38Zm.27-.71s0-.08,0-.08-.09.13,0,.16,0-.08,0-.08S75,14.67,75,14.67Zm0-.39c0,.06-.08.28,0,.31S75.06,14.31,75,14.28Zm.11-.33c0,.14-.08.17-.11.28A.25.25,0,0,0,75.14,14Zm0,.61s-.11.08,0,.08S75.17,14.56,75.11,14.56Zm.11-1.1c.06.16-.19.46,0,.49C75.06,13.84,75.39,13.57,75.22,13.46Zm.14-.36s0,.05,0,.08S75.39,13.1,75.36,13.1Zm0,.19s0,0,0,0S75.36,13.26,75.36,13.29Zm0-.27h0Zm.08-.39c0,.06-.08.11,0,.14S75.53,12.63,75.47,12.63Zm0-.71s0,.08,0,.08A.08.08,0,0,1,75.5,11.92Zm0,.41c.08,0,.11-.08,0-.08s0,0,0,0Zm.08.16c0-.05-.06-.05-.08-.05v.05Zm0-.38h0Zm.08-.94s0-.08,0-.13S75.69,11.15,75.69,11.17Zm0-.16c-.06,0,0-.14,0-.19S75.72,11,75.72,11Zm0-.19s0,0,0,0Zm0-.14s0-.17,0-.17S75.86,10.65,75.8,10.68Zm0,9.49c0-.05,0-.08,0-.08s0,0,0,0,0,.05,0,.05S75.86,20.17,75.83,20.17Zm0-9.66h0s.06,0,0-.16h0A.74.74,0,0,1,75.83,10.51Zm0,9.66s0,0,.08,0A0,0,0,0,0,75.86,20.17Zm.11-.3,0,0c0-.1,0-.13,0-.22h0C76,19.79,76,19.79,76,19.87ZM76,9.72s0,0,0,0S76,9.69,76,9.72Zm.08,9.87c.08,0,0,.11,0,.11l0,0C76,19.62,76.05,19.62,76.05,19.59Zm.11,0c-.11,0,.06-.1,0-.19C76.32,19.4,76.16,19.54,76.16,19.56Zm.44-.44s-.08.06-.11.06.06-.06.06-.08h0Zm0-.08v0h0A0,0,0,0,1,76.63,19Zm0,0v0S76.63,19.1,76.6,19.07Zm0,0s0-.08,0,0Zm.52-.58,0,.06v0H77c.06,0,.14-.2.14-.11S77.15,18.46,77.15,18.46Zm.11-.19c-.05,0-.05,0-.08,0S77.26,18.24,77.26,18.27Zm.08,0c.09.05.09,0,.09-.06s0,0,0,0S77.34,18.27,77.34,18.3Zm.09,1.92s0,0-.06,0S77.43,20.22,77.43,20.22Zm.16-2.17c-.11,0,0-.11,0,0Zm1.27,2.5c0,.06,0-.05,0-.13S78.86,20.53,78.86,20.55Zm0,.17s0,0-.08,0S78.86,20.72,78.91,20.72Zm0,.3c0,.09,0-.08,0-.11S78.86,21,78.86,21Zm0,.33h0Zm.06,1s0,0-.06,0S78.94,22.32,79,22.32Zm0,.55s0,0,0,0S79,22.84,79,22.87Zm0-2.18s.09,0,.09,0S79,20.67,79,20.69Zm.11,2.12s0,.11.06.11S79.13,22.73,79.1,22.81Zm.2,1.43s-.06,0-.06-.11S79.3,24.19,79.3,24.24Zm0,.08a.11.11,0,0,1,0,.09S79.32,24.38,79.32,24.32Zm.09.14s-.06,0-.06-.05S79.41,24.41,79.41,24.46Zm0,0c0,.08,0,0,0,0S79.43,24.49,79.46,24.49Zm2.42-.28s0,0,0,0Zm.25-.22a0,0,0,0,1,0,0A0,0,0,0,1,82.13,24Zm.41-.27c.06,0-.05.14-.11.14S82.54,23.8,82.54,23.72Z"/><path class="cls-3" d="M87.49,17.8s0,.06,0,.06c-.16.49-.27,1.1-.47,1.57,0,.74-.08,1.35-.08,2.12a4,4,0,0,0,.61,2.17A8.32,8.32,0,0,0,90,21.41c0-.08,0-.08,0-.19s0-.11.14-.06c.44-.71.93-1.32,1.37-2,0-.06,0-.06,0-.08s.19-.09.16-.25c.08,0,.11-.08.14,0,0-.25.19-.33.27-.41a9.94,9.94,0,0,1,.69-.91.53.53,0,0,0,.09.11.64.64,0,0,0,0,.41,3.7,3.7,0,0,1-.33.66.3.3,0,0,1-.2.39c0,.11.08,0,.14,0s-.14.11-.14.19-.08.05-.08.08.11,0,.08-.08.11-.11.17-.06a5.27,5.27,0,0,0-.3.53c.1-.06.16-.2.27-.3-.06.13-.17.41-.27.46s0,0,.08.08a1,1,0,0,0-.2.39H92c0,.06,0,.06,0,.16-.17.17-.22.39-.36.53-.08.58-.66,1.07-.88,1.62-.74.83-1.48,1.79-2.94,1.82-.44.19-.72-.17-1-.33a3.45,3.45,0,0,1-.8-.47,2.22,2.22,0,0,1-.63-1.29,2.25,2.25,0,0,1-.05-.22c0-.17-.06-.39,0-.47a.77.77,0,0,1-.11-.17.81.81,0,0,0,0-.22.77.77,0,0,0-.14.25s0,0-.06,0a9.89,9.89,0,0,1-2.28,2.81c-.22,0-.38.14-.63.16-.86,0-1.21-.57-1.68-1,0-.08-.14-.25,0-.3a.21.21,0,0,1-.06-.28,2.22,2.22,0,0,0,0-.66s.06.06.06.06,0-.14,0-.11,0-.11,0-.06,0-.08,0-.08,0,0,.08-.06c-.17-.35.22-.77.19-1.15,0,0,0,.05,0,.08s.14-.19,0-.22,0,0,.11,0c0-.22.11-.31,0-.5,0,0,0,0,.06,0a10.88,10.88,0,0,0,.39-1s-.06.08,0,.16a5.36,5.36,0,0,1,.41-.79c.11-.09.11-.2.16-.31s0,0,.09.06a.86.86,0,0,1,.22-.39s0,0,0,0,0,0,0,0a1,1,0,0,1,.31-.36h0a6.46,6.46,0,0,1,.46-.61s-.11,0-.08-.11c.14.06.33.09.41,0a1.67,1.67,0,0,1,1.85.38c0,.06-.06.06-.11.06a3.94,3.94,0,0,1,.13.71c.14-.05.17-.19.25-.3.06.08-.08.17-.08.28a1.67,1.67,0,0,0,.36-.64c.08,0,.16-.11.11-.16,0-.33.35-.61.38-.88a3,3,0,0,1,1.49.19c.22.41-.11.85-.25,1.18.06.06,0,.2,0,.28Zm-6.88,3.94h0Zm.53-2a0,0,0,0,1,0,0A0,0,0,0,1,81.14,19.7Zm0,.33c.11,0,0-.11,0,0S81.14,20.06,81.14,20Zm.11-.16s0,0,0,0S81.25,20,81.25,19.87Zm.3-.64c-.08,0-.11.06,0,.11S81.55,19.26,81.55,19.23Zm.11,4.08a1.89,1.89,0,0,0,.8-.88h0c.25-.2.36-.53.58-.75,0,.06.08,0,0,0a6.14,6.14,0,0,1,.55-.82c0,.14.11,0,0,0a.84.84,0,0,1,.27-.44c0,.11-.14.16-.08.25,0-.09.19-.28.08-.25a2.1,2.1,0,0,1,.39-.63c0,.13-.14.16-.14.3a.9.9,0,0,0,.27-.42s.06-.08.09-.11-.09,0-.09.11-.08.17-.11.09c.2-.42.47-.75.66-1.19-.08-.16-.16-.3-.24-.44s-.06-.05-.09-.05,0-.11,0-.11c-.11-.17-.14-.5-.39-.58a1.58,1.58,0,0,0-.49.74A12.52,12.52,0,0,0,81.66,23.31Zm.17-4.87c-.06,0,0-.09,0-.14S81.8,18.38,81.83,18.44Zm.46-.53h0s0-.05,0,0Zm.11-.3v0h-.08Zm0,0s0-.11.09-.11S82.46,17.58,82.4,17.58Zm.33,4.65c.06,0,0-.08,0,0S82.73,22.34,82.73,22.23Zm.06-5.14c.08,0,0,.11-.06.11S82.79,17.12,82.79,17.09Zm-.06.11v0Zm1,3.63v0h-.06v0Zm0-2.7h0S83.72,18.11,83.72,18.13Zm.33,2.12c-.11,0-.11.11-.13.14S84,20.34,84.05,20.25Zm.14-3h0Zm.52,1.82a2.47,2.47,0,0,1-.27.44C84.58,19.43,84.74,19.21,84.71,19.07Zm0-.72c.06-.05-.08-.13,0-.22s-.09,0-.09-.05S84.71,18.27,84.71,18.35Zm.09.06s0,0-.06,0S84.8,18.38,84.8,18.41Zm0-.22c0,.08.08.16.14.22A.2.2,0,0,0,84.77,18.19Zm.08.25s0,0,0,0S84.85,18.46,84.85,18.44Zm0,.52c0-.06.06-.06.06-.17h0s.09-.11,0-.16,0,.08,0,.16S84.74,18.93,84.85,19Zm.39,3.71s0-.08.05-.13S85.35,22.67,85.24,22.67Zm.13-4.7c0,.05.06-.08,0-.06h0Zm0,4.35s.06,0,.06-.06S85.4,22.32,85.4,22.32Zm.17-4.52c0,.06-.06.09,0,.11A.19.19,0,0,0,85.57,17.8Zm.22-.55c-.09.06-.11.2-.17.31-.05-.17.17-.31.22-.5,0,0,0,0,.06,0S85.79,17.14,85.79,17.25Zm.13-.3s0,.14,0,.14S86,17,86,16.92h0v-.05s0,0,0,.05S86,17,85.92,17Zm.17-.16c.08,0,0-.09,0,0S86.09,16.81,86.09,16.79Zm5.45,4.43h0Zm.52-1.33c0,.14.14,0,.08,0A.1.1,0,0,0,92.06,19.89Zm.08.56s-.08,0,0-.06S92.14,20.42,92.14,20.45Z"/><path class="cls-3" d="M97.67,20.42c-.06,0-.06,0-.06.11-.16,0,.09-.14.09-.25s0,.06.08.08,0-.11,0-.14,0,0,.08,0c.11-.25.36-.3.5-.55,0,0,.08,0,.08,0s0,0,0,.06,0,0,0-.06,0-.11.16-.17,0,0,0,0,0,0,.06,0,.06,0,.11,0-.08,0-.11,0a.89.89,0,0,1,.55-.44s0-.06,0-.11.09.05.11.05a.3.3,0,0,0,0-.16.21.21,0,0,0,.11.08s0,0,0,0,0-.05-.05-.05a1,1,0,0,1,.22-.2c.08,0,0,.06,0,.11,0-.24.33-.24.47-.52,0,0,.11.08.08,0s0,0,.09,0-.09-.05,0-.14c0,.11.08-.08.22-.08a4.07,4.07,0,0,1,1-.66.7.7,0,0,1-.2.22c0,.08.09,0,.17,0s-.19.14-.28.28c-.08,0,0,.05,0,0s.09-.11.17-.09-.08.11-.14.17.06,0,.11.05a1.63,1.63,0,0,0-.38.28c0,.05,0,.05,0,.11-.19.05-.22.19-.33.3s0,0,0,.06,0,0,0-.06,0,0,.11,0a5.28,5.28,0,0,1-.8.78c.09.1-.14.21-.19.27s0,0,0,0c-1,.93-1.92,1.95-2.83,2.94H96.9s0,.06,0,.11c-.16.25-.41.36-.58.58a5.68,5.68,0,0,0-.22,1c-.08.47-.22,1-.27,1.49a.4.4,0,0,0-.08.36,19.53,19.53,0,0,1-.64,2.14s0,.08,0,.11c-.52,1.62-1.15,3.19-2.64,3.93a4.44,4.44,0,0,1-.66,0,5.69,5.69,0,0,1-2-1,2.94,2.94,0,0,1,.09-.71c.08,0,0,.11,0,.14s0-.17.08-.25,0,.05,0,.08,0-.16,0-.22,0,.06,0,.06.11-.17,0-.14,0-.11.08-.17v.11s0-.05,0-.11,0,0,0,0,0-.16,0-.22,0,.11,0,.14a1.19,1.19,0,0,0,.22-.47c-.11,0-.06.22-.2.28.09-.17.17-.39.31-.47s0-.08-.06,0,0-.13.08-.16c0,.16.11-.22,0,0a.29.29,0,0,1,.09-.22s0,.08,0,.08,0-.08.08-.14v0c-.14,0,.08-.19.08-.27s0,0,.08,0,.09-.06,0-.11c.14-.25.39-.5.39-.8.11,0,.27-.3.33-.47,0,0,0,.06,0,.06.06-.25.25-.36.36-.58a1,1,0,0,0,.17-.27c.13-.06.16-.25.33-.33,0-.06,0-.06,0-.14a2.72,2.72,0,0,0,.66-.83s0,0,0,.06c0-.17.2-.22.25-.42,0,0,0,0,.06,0s0-.05,0-.13,0,.05,0,.08c.06-.25.3-.28.42-.61.16,0,.16-.22.24-.33s0,.11.09.11,0-.16,0-.16,0-.14.19-.14-.06,0-.06-.11.09-.08.17,0a10,10,0,0,0,.41-1.87,2.51,2.51,0,0,0-.58.71,10.87,10.87,0,0,0-.88,1.05c-.08,0-.08.13-.19.13v.14c-.52.36-.85.88-1.73.85a3.6,3.6,0,0,1-1.76-1.07,2.06,2.06,0,0,1-.06-1,11.22,11.22,0,0,1,1.57-4.7s0,0,.11,0,0-.06,0-.06a6.34,6.34,0,0,1,.94-1.12c.08,0,.22,0,.27,0a2.71,2.71,0,0,1,1,.05c.8.17,1,.85.91,1.79A1.12,1.12,0,0,1,94,19c-.08-.11-.13,0-.25,0,0-.44-.16-1-.21-1.43a6.3,6.3,0,0,0-1.19,1.82,8.18,8.18,0,0,0-1.15,3.85c0-.06.16,0,.19-.09a41.76,41.76,0,0,0,3.22-4s0,0,0,.08.06-.27.17-.24a9.68,9.68,0,0,1,.85-1.21c0-.53.22-1,.22-1.41,0-.08.08-.41,0-.44a.7.7,0,0,1,.49-.13c.17.05.25.16.36.19s0,0,.11,0a1.1,1.1,0,0,1,.55.72,2,2,0,0,1-.11.82,12.49,12.49,0,0,1-.36,2,11.71,11.71,0,0,0-.19,1.74s0-.17.11-.09,0,0,0-.16,0,.08.06.11c.08-.14.08-.28.22-.3s-.06,0-.06.11.11-.39.33-.33,0-.09.06-.14,0,.08,0,.08,0-.06,0-.08.11.08.11,0S97.67,20.5,97.67,20.42Zm-7.59.52a8.68,8.68,0,0,1,2.2-4.15s0-.06,0-.06a10,10,0,0,0-2.53,6C89.88,22.1,89.94,21.52,90.08,20.94Zm-.33,1.79s0,0,0,.11S89.77,22.73,89.75,22.73Zm.19,7.7s0-.08,0-.08S90,30.4,89.94,30.43Zm.41-.93c-.08,0,0-.06,0-.09Zm.39-.8c-.06,0-.11.11,0,.14S90.74,28.78,90.74,28.7Zm.05-.11s0,0-.05.05.05-.13.05-.19h.06C90.85,28.51,90.79,28.51,90.79,28.59Zm1.29,2.31c0,.11-.16.19-.24.25s-.06,0-.06,0,0,0,0,.08,0,0,0,0h0s-.08,0-.08.08.08,0,.14-.08a3.58,3.58,0,0,0,.9-1.21c-.13.11-.13.27-.24.33v-.06A15.7,15.7,0,0,0,94,26,6.36,6.36,0,0,0,93,27.43a.69.69,0,0,0-.3.39c-.08-.06-.08.11-.14.11A10.35,10.35,0,0,0,91,31.15c0,.13,0,.24.06.33s.05,0,.19,0-.08,0,0-.08a2.31,2.31,0,0,0,.8-.6S92.06,30.9,92.08,30.9ZM91.2,18c0-.05,0-.05,0,0S91.2,18.05,91.2,18Zm.14,13.46a.06.06,0,0,0,.06-.06c.13,0,0-.11,0,0A.06.06,0,0,0,91.34,31.48Zm.19-.14c.06,0,.14,0,.14-.08a.13.13,0,0,0-.14.08C91.42,31.31,91.53,31.42,91.53,31.34Zm.06.05s0-.05,0,0S91.59,31.42,91.59,31.39ZM91.75,27s0,0,0,0S91.73,27,91.75,27Zm0,4.27h.06v-.08h-.06Zm.28-.41s0,0,0,.08a1.68,1.68,0,0,0,.42-.55C92.28,30.46,92.22,30.68,92.06,30.82Zm0-14c.06,0,.06,0,.08,0S92.11,16.76,92.11,16.79Zm.74,13c0,.08-.13.13-.08.19S92.91,29.85,92.85,29.83Zm.09-.22c.11,0,.13-.14.16-.28s.25-.25.11-.36c0,.17-.14.2-.11.36S93,29.52,92.94,29.61Zm.38-.77c.06,0,0-.09,0,0S93.35,29,93.32,28.84Zm.06-.17s-.06.08,0,.08S93.4,28.67,93.38,28.67Zm0-.22s.09,0,.09,0S93.4,28.42,93.4,28.45Zm.17-.52c0,.05-.08.08,0,.11S93.68,27.87,93.57,27.93Zm.11-.3c0,.05-.11.16,0,.22C93.65,27.76,93.76,27.63,93.68,27.63Zm.08-.36c0,.05,0,.08,0,.11S93.85,27.3,93.76,27.27Zm.39-1.16c-.08,0-.08.06-.11.09S94.09,26.14,94.15,26.11ZM94.09,26c.06,0,.06,0,.09,0S94.09,26,94.09,26Zm.17-2.17s0,0,0,0S94.26,24,94.26,23.86Zm2.42-2.48a0,0,0,0,0,0,0S96.68,21.35,96.68,21.38Zm.63-.33s0,0,0,0A0,0,0,0,0,97.31,21.05ZM98,20.2a0,0,0,0,0,0,0A0,0,0,0,0,98,20.2Zm.14.08c.08.06,0-.06,0,0S98.11,20.42,98.11,20.28Zm0-.25s0,0,0,0S98.14,20,98.14,20Zm.13.09c-.08,0-.13.1-.08.13S98.27,20.17,98.27,20.12Zm.06-.28s0,0-.06.05S98.39,19.84,98.33,19.84Zm.47-.22c0,.05-.08.08,0,.11S98.82,19.67,98.8,19.62Zm.55.47c.11,0,0-.09,0,0S99.35,20.2,99.35,20.09Zm.16-1.24s0,0,.09-.06S99.51,18.79,99.51,18.85Zm.11,1h.06v0c-.06,0-.06,0-.06,0S99.62,19.89,99.62,19.87Zm.83-1.74s0,.06,0,0S100.45,18.11,100.45,18.13Zm.52,0v0h0v0Zm.17-.11s0-.05,0,0S101.14,18.05,101.14,18Z"/><path class="cls-3" d="M105.32,17.8c-.06,0,0,.06,0,.06-.17.49-.28,1.1-.47,1.57,0,.74-.08,1.35-.08,2.12a4.13,4.13,0,0,0,.6,2.17,8.32,8.32,0,0,0,2.45-2.31c0-.08.05-.08.05-.19s0-.11.14-.06c.44-.71.94-1.32,1.38-2,0-.06-.06-.06,0-.08s.19-.09.17-.25c.08,0,.11-.08.13,0,0-.25.2-.33.28-.41a7.29,7.29,0,0,1,.69-.91.31.31,0,0,0,.08.11.64.64,0,0,0,0,.41,2.72,2.72,0,0,1-.33.66.3.3,0,0,1-.19.39c0,.11.08,0,.13,0s-.13.11-.13.19-.09.05-.09.08.11,0,.09-.08.11-.11.16-.06-.22.33-.3.53c.11-.06.16-.2.27-.3,0,.13-.16.41-.27.46s0,0,.08.08a.84.84,0,0,0-.19.39h-.08c0,.06,0,.06,0,.16-.16.17-.22.39-.35.53-.09.58-.67,1.07-.89,1.62-.74.83-1.48,1.79-2.94,1.82-.44.19-.71-.17-1-.33a3.07,3.07,0,0,1-.8-.47,2.11,2.11,0,0,1-.63-1.29c0-.06,0-.17-.06-.22s-.06-.39,0-.47-.08-.14-.11-.17,0-.16,0-.22a1,1,0,0,0-.14.25s0,0,0,0a9.92,9.92,0,0,1-2.29,2.81c-.22,0-.38.14-.63.16-.85,0-1.21-.57-1.68-1,.06-.08-.13-.25,0-.3a.22.22,0,0,1,0-.28,2.62,2.62,0,0,0,0-.66s0,.06,0,.06,0-.14,0-.11,0-.11.06-.06,0-.08,0-.08,0,0,.08-.06c-.16-.35.22-.77.2-1.15,0,0,0,.05,0,.08s.13-.19,0-.22.06,0,.11,0c0-.22.11-.31.06-.5,0,0,0,0,0,0a8.67,8.67,0,0,0,.39-1c.05,0-.06.08,0,.16a6.54,6.54,0,0,1,.41-.79c.11-.09.11-.2.17-.31s0,0,.08.06a1,1,0,0,1,.22-.39s0,0,0,0,0,0,0,0a.92.92,0,0,1,.3-.36h0a6.47,6.47,0,0,1,.47-.61s-.11,0-.09-.11c.14.06.33.09.42,0a1.66,1.66,0,0,1,1.84.38c0,.06,0,.06-.11.06a5,5,0,0,1,.14.71c.14-.05.16-.19.25-.3,0,.08-.09.17-.09.28a1.55,1.55,0,0,0,.36-.64c.08,0,.16-.11.11-.16,0-.33.36-.61.38-.88a3,3,0,0,1,1.49.19c.22.41-.11.85-.25,1.18.06.06,0,.2,0,.28Zm-6.88,3.94h0Zm.52-2a0,0,0,0,1,0,0A0,0,0,0,1,99,19.7ZM99,20c.11,0,0-.11,0,0S99,20.06,99,20Zm.11-.16s0,0,0,0S99.07,20,99.07,19.87Zm.3-.64c-.08,0-.11.06-.05.11S99.37,19.26,99.37,19.23Zm.11,4.08a1.89,1.89,0,0,0,.8-.88h0c.25-.2.36-.53.58-.75,0,.06.08,0,0,0a7.28,7.28,0,0,1,.55-.82c0,.14.11,0,0,0a.91.91,0,0,1,.27-.44c0,.11-.13.16-.08.25,0-.09.19-.28.08-.25a2.32,2.32,0,0,1,.39-.63c0,.13-.14.16-.14.3.14-.09.19-.25.28-.42,0,0,.05-.08.08-.11s-.08,0-.08.11-.09.17-.11.09c.19-.42.46-.75.66-1.19-.08-.16-.17-.3-.25-.44s-.06-.05-.08-.05,0-.11,0-.11c-.11-.17-.14-.5-.39-.58a1.58,1.58,0,0,0-.49.74A12.52,12.52,0,0,0,99.48,23.31Zm.17-4.87c-.06,0,0-.09,0-.14S99.62,18.38,99.65,18.44Zm.47-.53h0s0-.05,0,0Zm.11-.3v0h-.09A.3.3,0,0,1,100.23,17.61Zm0,0s0-.11.08-.11S100.28,17.58,100.23,17.58Zm.33,4.65s0-.08,0,0S100.56,22.34,100.56,22.23Zm0-5.14c.08,0,0,.11,0,.11S100.61,17.12,100.61,17.09Zm0,.11v0Zm1,3.63v0h-.06v0Zm0-2.7h0A0,0,0,1,1,101.55,18.13Zm.33,2.12c-.11,0-.11.11-.14.14S101.85,20.34,101.88,20.25Zm.13-3h0Zm.53,1.82a3.29,3.29,0,0,1-.28.44A.57.57,0,0,0,102.54,19.07Zm0-.72c0-.05-.09-.13,0-.22s-.08,0-.08-.05S102.54,18.27,102.54,18.35Zm.08.06s0,0-.06,0S102.62,18.38,102.62,18.41Zm0-.22c0,.08.09.16.14.22C102.73,18.27,102.68,18.22,102.59,18.19Zm.09.25s-.06,0-.06,0S102.68,18.46,102.68,18.44Zm0,.52c-.06-.06,0-.06,0-.17h0s.08-.11,0-.16,0,.08,0,.16S102.56,18.93,102.68,19Zm.38,3.71s0-.08,0-.13S103.17,22.67,103.06,22.67Zm.14-4.7c0,.05,0-.08,0-.06h0Zm0,4.35s0,0,0-.06S103.23,22.32,103.23,22.32Zm.16-4.52c0,.06,0,.09,0,.11S103.42,17.86,103.39,17.8Zm.22-.55c-.08.06-.11.2-.17.31,0-.17.17-.31.23-.5,0,0,0,0,0,0S103.61,17.14,103.61,17.25Zm.14-.3s0,.14,0,.14.09-.11.09-.17h0v-.05s0,0,0,.05A.17.17,0,0,1,103.75,17Zm.16-.16c.09,0,0-.09,0,0S103.91,16.81,103.91,16.79Zm5.45,4.43h0Zm.52-1.33c0,.14.14,0,.09,0S109.88,19.89,109.88,19.89Zm.09.56s-.09,0,0-.06S110,20.42,110,20.45Z"/><path class="cls-3" d="M108.12,19.18c-.06.05,0-.14,0-.17S108.12,19.12,108.12,19.18Zm0,.19c-.06,0,0-.08,0-.14S108.12,19.34,108.12,19.37Zm1.95,3.5a0,0,0,0,0,0,0c.11,0,.11-.06.17-.06-.11.19-.39.28-.53.55,0,0,0,0,0,0s.14-.11.25-.11a.88.88,0,0,1-.25.22c.09.08,0,.06,0,.17s0,0,0,0,0,0,0,0-.19.24-.19.41c.11-.06,0,.25.14.36a4.84,4.84,0,0,0,1.9-.55s.08,0,.08,0a5.87,5.87,0,0,0,1.07-.94c.06.09.06,0,0,0s.22-.05.22-.24c0,0,0-.06,0-.09s0,0,0,0,0,0,0,.09,0-.11,0-.17-.14,0-.19-.05c-1.08-.42-2.48-.44-3.41-1a6.25,6.25,0,0,1-.72-.74c-.11-.39-.41-.72-.49-1.05-.09,0,0,0,0-.06s-.08,0-.08-.1,0,0,.06,0c-.06-.67.27-.86.43-1.33.28-.16.33-.52.66-.66,0,.09,0,.06,0,.14a.22.22,0,0,0,.17-.16c0,.08,0-.09.11-.09s.08-.11.11-.13,0,0,0,0,.06-.06.06-.08v0s0,0,0,0v0s-.06,0-.06.08,0,0,0,0-.06.05-.11.13a.05.05,0,0,1-.06-.05,12,12,0,0,1,1.73-1.49s0-.05,0-.11a2.15,2.15,0,0,0,.52-.3c.09,0,0,.08,0,.14a1.19,1.19,0,0,1,.91-.58c0,.14-.19,0-.19.14a.24.24,0,0,0,.27-.11c0-.08-.19,0-.19-.17s.08.09.14.06,0-.08,0-.14.19.08.22,0c.66.25,2,.08,2.11,1.16-.16.19-.19.57-.35.82-.11,0,0-.08-.06-.08s0,.08,0,.11,0,0,0-.06,0,.11,0,.17,0-.06,0-.08-.06.13-.11.16,0-.16,0-.16a.59.59,0,0,1-.17.16s0,0,0-.08-.06.11-.09.16-.16-.13-.19,0c0-.27.06-.49,0-.8a14.59,14.59,0,0,0-3.93,3.14,5.21,5.21,0,0,1-.44.8.39.39,0,0,1-.06.3,2.1,2.1,0,0,0,1.1.33,6.58,6.58,0,0,1,3.52,1.68c.17.3.42.52.3.91A2.73,2.73,0,0,1,112.63,25a4.58,4.58,0,0,1-2.12.58c-.08-.08-.19-.08-.35-.08-.83-.17-1.16-.89-1.63-1.46.06-.09-.08-.11-.14-.22s.14,0,.17.05.11-.22,0-.27a4.46,4.46,0,0,1,1.6-1.24.17.17,0,0,0,.06.14c0,.11-.09.11-.17.13s.11,0,.14,0-.08.11-.14.17Zm-1.48.82a0,0,0,0,0,0,0s0,0,0-.06S108.59,23.66,108.59,23.69Zm.16-5.5s0-.06,0,0S108.75,18.22,108.75,18.19Zm.11-.17s-.13.11,0,.11C108.78,18.08,108.94,18.05,108.86,18Zm0,.2s0,0,0,.05,0,.11,0,0,0,0,0-.05,0,0,0,0,0-.06,0,0A0,0,0,0,0,108.89,18.22Zm.14-.17c-.09,0-.09.06-.11.08S109,18.08,109,18.05Zm.24,4.84h0S109.27,22.89,109.27,22.89Zm0-5.42a.13.13,0,0,1,.14-.11.15.15,0,0,1,0,.09C109.33,17.42,109.33,17.47,109.27,17.47Zm.12.17a5.81,5.81,0,0,0,.71-.69,3.87,3.87,0,0,0-.71.69C109.27,17.64,109.39,17.75,109.39,17.64Zm.19,6.57a.24.24,0,0,0-.06.11C109.58,24.32,109.61,24.21,109.58,24.21Zm.14-1.65a0,0,0,0,1,0,0A0,0,0,0,1,109.72,22.56Zm.19-.08a.14.14,0,0,1,.14-.11S110,22.48,109.91,22.48Zm.19-5.69s-.08,0-.08,0S110.1,16.81,110.1,16.79Zm0,5.58h0Zm.06-5.61c0-.06.11,0,.08-.11s0-.08,0,0S110.07,16.7,110.16,16.76Zm0,.16s.22-.13.19-.19a.19.19,0,0,1-.17.08C110.18,16.87,110.18,16.9,110.16,16.92Zm.11,7.32c0,.06,0,.06,0,.06S110.27,24.24,110.27,24.24Zm.11-7.7v0c-.06,0,0,0,0,0v0s0,0,0-.06.11,0,.11-.05-.08,0-.11.05S110.38,16.48,110.38,16.54Zm.13.08c-.08,0-.11.08-.13.11s.11-.08.13-.11,0,0,0,0,0,0,0,0Zm.06-.3c0,.05,0,.08,0,.11S110.6,16.37,110.57,16.32Zm.08.25c.06-.14.19-.14.25-.28s0-.08,0,0S110.6,16.46,110.65,16.57Zm.08,7.59s0,0-.08,0A.1.1,0,0,1,110.73,24.16Zm0-8c0,.09-.08.09-.08.14S110.87,16.21,110.76,16.15ZM111,16c-.08,0-.14.09-.08.11S111,16.13,111,16Zm.11.09s0,0,0,0S111.09,16.15,111.09,16.13Zm.25,7.92V24h0v.06Zm.22-8.28s-.08,0-.08.11S111.56,15.82,111.56,15.77Zm-.06-.06h.06c0-.05,0-.08,0-.08s0,0,0,0Zm.2,0c-.06,0-.11,0-.11,0S111.67,15.77,111.7,15.74Zm.27-.19c-.11,0-.14,0-.16.08S111.92,15.6,112,15.55Zm-.14-.06a.75.75,0,0,0,.22-.11c0-.05,0-.05,0-.05s0,0,0,0S111.86,15.41,111.83,15.49Zm.2,0c0,.06.11,0,0,0s0,0,0,0S112,15.63,112,15.49Zm.3-.33a.69.69,0,0,0-.25.17C112.19,15.3,112.3,15.27,112.33,15.16Zm0,.17c0,.05-.11,0-.08.08S112.36,15.38,112.3,15.33Zm0,.16c-.08,0-.08,0-.11.06s.11,0,.11-.06,0,0,0,0,0,0,0,0S112.33,15.47,112.33,15.49Zm0-.27c0-.06,0-.06,0-.08s0,0,0,0v.11Zm.11.16c.06,0,.09,0,.09-.05s-.06,0-.09.05S112.52,15.41,112.49,15.38Zm1.49.77c-.08.11-.08.44,0,.5A1.56,1.56,0,0,0,114,16.15Zm0,.55c0,.06,0,.09.06.09S114,16.73,114,16.7Z"/><path class="cls-3" d="M125.09,21.49h0a1.59,1.59,0,0,1,0-.38,1.82,1.82,0,0,1,0,.93s0-.05,0-.05a.48.48,0,0,0,0,.35c0-.08,0-.24,0-.27a4.43,4.43,0,0,1,0,1.24c0-.22,0-.5-.08-.75,0,.36.11.58,0,.8a.35.35,0,0,1,.08.36,2.64,2.64,0,0,1,.28.63c.25.28.63.39.88.66.11.06.25.11.38.19a1.76,1.76,0,0,1,.55,0c.09-.08.17-.16.25-.22-.16-.05.06-.14.06-.22s0-.16,0-.33-.06.06-.17.06.11-.06.06-.17,0,0-.11,0,.08-.11.05-.16c-.22,0-.3.3-.6.27a14.21,14.21,0,0,1-.06-3.74,7,7,0,0,1,0-1.21c-.11-1.24-.52-2.23-1.81-2.2a1.12,1.12,0,0,0-1.35.38c-.19.09-.36.44-.61.61-.08-.11,0-.36,0-.52s-.52-.22-.74-.31c0,.06,0,.11,0,.11s0,0,0,0c-.22.08-.49,0-.8.08,0,.11.11.05.14.11s-.05.33-.14.49c0,0,.09,0,.09,0s-.09,0-.09,0c-.08.2-.05.5-.19.66,0,0,.11,0,.14,0s0,.17-.08.17.08-.11,0-.14-.06.14-.11.19c.22.42-.28,1-.14,1.46a1.08,1.08,0,0,0-.17.8l-.11,0c-.16,1.16-.33,2.23-.38,3.3,0,0,0,.09,0,.09s0-.09,0-.09a3.61,3.61,0,0,1,0-.79c-.17.19,0,.79-.14,1,0-.36.08-.61,0-.83a3.19,3.19,0,0,1,0,1,5.73,5.73,0,0,0,1,.83c.2,0,.2.06.39,0,0-.06,0-.06.11-.06s0-.08.05-.11c.33-1.35.94-2.47,1.3-3.79.11,0,0-.11,0-.14s.22-.25.22-.5a14.81,14.81,0,0,1,1.71-2.69c0,.05,0,.19.11.13-.08-.05,0-.16,0-.22.19.39-.06.91.16,1.16,0,.25-.16.41-.08.63.08-.05,0-.22.08-.22,0,.25.06.47,0,.69,0,.06.08.17,0,.19s0-.13,0-.19v0c-.06-.08,0-.44,0-.35a4.68,4.68,0,0,1,0,.55C125.17,21,125,21.24,125.09,21.49Zm-5,2.37s0,.11,0,.11S120.22,23.86,120.11,23.86Zm.06-.22s0,.11,0,.11Zm0,0h0c0-.14.06-.28,0-.31C120.22,23.47,120.14,23.55,120.17,23.64Zm.22-1.32a8.5,8.5,0,0,1-.14,1.07c.16-.25.08-.66.22-1.05C120.44,22.34,120.44,22.18,120.39,22.32Zm-.14,1.15a1.22,1.22,0,0,1,0,.33C120.3,23.75,120.3,23.47,120.25,23.47Zm0-1.1s0,.06,0,.14S120.33,22.37,120.3,22.37Zm0,.22c0,.06,0,.08,0,.11s0,0,0,0S120.33,22.59,120.28,22.59Zm0-.38v.05h.09v-.05Zm0,.11h0Zm.11-.77c0,.16-.13.44,0,.49C120.39,21.85,120.55,21.71,120.41,21.55Zm0,.46s0,.14,0,.17S120.55,22,120.44,22Zm.06-.24c0,.08-.09.13,0,.16S120.61,21.77,120.5,21.77Zm0-.66c0,.08,0,.13,0,.24S120.55,21.16,120.5,21.11Zm0-.25c0,.08-.08.19,0,.22S120.66,20.89,120.55,20.86Zm.06.36a2.6,2.6,0,0,0-.06.3C120.63,21.52,120.58,21.35,120.61,21.22Zm0,2.11a.08.08,0,0,1,0-.13S120.63,23.31,120.61,23.33Zm0-2.8a.58.58,0,0,0,0,.14S120.72,20.53,120.63,20.53Zm0,.58s0,.08,0,.11h0C120.66,21.16,120.63,21.16,120.63,21.11Zm0-.25s0,.14,0,.14S120.74,20.86,120.63,20.86Zm.09,1.73c-.09.06-.06-.05-.09-.08S120.72,22.54,120.72,22.59Zm-.06-2.2s0,.06,0,.06S120.72,20.42,120.66,20.39Zm0,0c.08-.05.08-.22.11-.33C120.66,20.12,120.72,20.25,120.66,20.39Zm0,2c.06,0,.06-.05.06-.11S120.74,22.4,120.66,22.37Zm.11-2.15a3.13,3.13,0,0,0,0,.5A.63.63,0,0,0,120.77,20.22Zm0,1.33s0,0,0,0S120.74,21.55,120.77,21.55Zm0-.69h0c.08,0,0,.08,0,.05Zm.14-.94c-.08,0-.08,0-.08.11S120.91,20,120.91,19.92Zm.08-.66s.06-.16,0-.16-.13.3,0,.44A1,1,0,0,1,121,19.26Zm0,.53h0C120.88,19.84,121,19.89,120.94,19.79Zm0-.53c.06.28-.16.36,0,.53a.82.82,0,0,0,.11-.39h0S121.07,19.26,121,19.26Zm0,1.63s0-.11,0-.14S121,20.89,121,20.89Zm.06-2c0,.05-.06.05-.06.13S121.1,18.88,121.05,18.88Zm0,.33s.06,0,.06-.09,0,.06,0,.14A.14.14,0,0,0,121.07,19.21Zm.09-.8s-.09.14,0,.16S121.21,18.46,121.16,18.41Zm0-.72s.06,0,.06,0S121.21,17.64,121.21,17.69Zm.06.39a.2.2,0,0,1,0,.11C121.29,18.22,121.29,18.05,121.27,18.08Zm3.79,1.54c0,.08,0,.08,0,.11S125.17,19.73,125.06,19.62Zm0,2.09a.18.18,0,0,1,0,.11C125.12,21.85,125.12,21.71,125.09,21.71Zm0,.69v.11h.06V22.4Zm0-.91s0,.06,0,.06S125.09,21.52,125.09,21.49Zm.08-2.09c-.08,0-.08-.19,0-.19S125.12,19.34,125.17,19.4Zm0,.14s0,0,0,0A0,0,0,0,1,125.17,19.54Zm0,1.48c-.08,0,0-.11,0-.11S125.17,21,125.17,21Zm.06,2.34s0,0-.06,0S125.23,23.33,125.23,23.36Z"/><path class="cls-3" d="M133.34,16.62s0,.08,0,.11,0,0,0,0h0A11.45,11.45,0,0,1,130,21c-.09,0-.09.06-.11,0a3.25,3.25,0,0,1-1.16.66c-.38.91-.49,2.73.14,3.47,1.35,0,2.15-.94,3-1.6.13-.05.21-.3.38-.24.08-.25.28-.25.39-.44,0,0,.05,0,0,0,.44-.57,1-1,1.46-1.51,0,0,0,0,0,0a4.28,4.28,0,0,0,.49-.55s0,0,0,0,.09-.22.17-.14a.77.77,0,0,1,.36-.41c.05-.11.13-.36.27-.33,0-.25.44-.44.52-.77.09-.06,0,0,.14,0a.7.7,0,0,1,.36-.5c.11-.33.36-.46.52-.74.14-.05.22-.22.42-.08-.09.16-.09.27-.2.49,0,.06,0-.08.09-.05s0,.16-.09.22-.05.05-.05.08.05,0,.05-.08-.05.19-.08.25,0,0,0,0,0,0-.06,0c.06.28-.16.44-.22.64-.11.63-.71,1-.91,1.59,0,0,0,.14-.13,0,.05.19-.11.22-.11.39a36.9,36.9,0,0,1-2.53,3s0,0,0,.05-.06,0-.08,0,.08,0,.08,0,0-.05,0-.05a0,0,0,0,1,0,.05,5,5,0,0,1-3.36,1.84l-.44,0a.8.8,0,0,0-.33-.11,1.32,1.32,0,0,0-.55-.22,8,8,0,0,1-.77-.77,5.53,5.53,0,0,1-.6-.86c-.72-1.32-.28-3,.22-4.29a4.63,4.63,0,0,0,.3-.52A14.83,14.83,0,0,1,129,17.23s0,.05,0,.08a.6.6,0,0,1,.19-.39c0,.06,0,.06.05.06s0,0-.05-.06a8,8,0,0,1,2-2.09,2.69,2.69,0,0,0,.47.14c.91,0,1.79.25,1.84,1.27a1.51,1.51,0,0,1-.14.49Zm-6.27,5.06a17.92,17.92,0,0,1,1.27-3.13s0,.05-.09.08A11.18,11.18,0,0,0,127.07,21.68Zm1.65-3.77c.08,0,.14-.11.08-.13s-.08.08-.08.13S128.75,17.94,128.72,17.91Zm.33-.46h0c-.11,0-.19.24-.16.3,0-.14.14-.17.16-.3s0,0,0,0,0,0,0-.06.14-.14.08-.16-.08.08-.08.16S129.05,17.42,129.05,17.45Zm-.16,0c.11,0,0-.11,0,0S128.89,17.45,128.89,17.42Zm.27,2.86A15.09,15.09,0,0,0,132,16.81c0-.24.2-.41.25-.74-.05-.11,0-.25-.08-.3a6.16,6.16,0,0,0-1.63,1.59C130.15,18.3,129.55,19.21,129.16,20.28Zm.14-3.19h0s0-.06,0-.06,0,0,0,.06S129.3,17.12,129.3,17.09Zm.08-.17c.08,0,0,0,0,0S129.41,17,129.38,16.92Zm.47-.6c0,.08-.06.05-.06.11v0s0,0,0,0,0,0,0,.06,0,.08,0,0,0-.06,0-.06,0,0,0,0v0c.06,0,.11,0,.09-.11s.08-.06.11-.08-.09.05-.11.08Zm.19-.19h0c.14,0,0-.14,0,0S130,16.15,130,16.13Zm3.17.68c0,.09-.09.17,0,.22S133.29,16.87,133.21,16.81Zm0,5.67a0,0,0,0,0,0-.05A0,0,0,0,0,133.21,22.48Zm1-1.1h0S134.17,21.35,134.17,21.38Zm.85-.85s0,0,0,0,.06,0,.06,0h0C135,20.5,135,20.53,135,20.53Zm1.65-.74c.06,0,0,0,0,0S136.67,19.84,136.67,19.79Z"/><path class="cls-3" d="M142.39,20.42s0,0,0,.11c-.17,0,.08-.14.08-.25s0,.06.08.08,0-.11,0-.14.06,0,.08,0c.11-.25.36-.3.5-.55,0,0,.08,0,.08,0s0,0,0,.06,0,0,0-.06.06-.11.17-.17,0,0,0,0,0,0,0,0,.06,0,.11,0-.08,0-.11,0a.89.89,0,0,1,.55-.44s0-.06,0-.11.08.05.11.05a.44.44,0,0,0,0-.16.21.21,0,0,0,.11.08s0,0,0,0,0-.05-.05-.05a1.33,1.33,0,0,1,.22-.2c.08,0,0,.06,0,.11,0-.24.33-.24.46-.52,0,0,.11.08.09,0l.08,0c.05,0-.08-.05,0-.14.05.11.08-.08.22-.08a4.07,4.07,0,0,1,1-.66.82.82,0,0,1-.19.22c0,.08.08,0,.16,0s-.19.14-.27.28c-.09,0,0,.05,0,0s.08-.11.16-.09-.08.11-.14.17.06,0,.11.05a1.63,1.63,0,0,0-.38.28c0,.05.05.05.05.11-.19.05-.22.19-.33.3s-.05,0-.05.06,0,0,.05-.06,0,0,.11,0a5.25,5.25,0,0,1-.79.78c.08.1-.14.21-.2.27s0,0,.06,0c-1,.93-1.93,1.95-2.84,2.94h-.08s0,.06,0,.11c-.16.25-.41.36-.57.58a4.24,4.24,0,0,0-.22,1c-.09.47-.22,1-.28,1.49a.4.4,0,0,0-.08.36,19.48,19.48,0,0,1-.63,2.14s0,.08,0,.11c-.53,1.62-1.16,3.19-2.64,3.93a4.65,4.65,0,0,1-.67,0,5.56,5.56,0,0,1-2-1,2.92,2.92,0,0,1,.08-.71c.08,0,0,.11,0,.14s0-.17.08-.25,0,.05,0,.08,0-.16,0-.22,0,.06,0,.06.11-.17,0-.14.05-.11.08-.17v.11s0-.05,0-.11,0,0,0,0,0-.16,0-.22,0,.11,0,.14a1.07,1.07,0,0,0,.22-.47c-.11,0-.06.22-.19.28.08-.17.16-.39.3-.47s0-.08-.06,0,0-.13.09-.16c0,.16.11-.22,0,0a.29.29,0,0,1,.08-.22s0,.08,0,.08,0-.08.08-.14v0c-.14,0,.08-.19.08-.27s0,0,.09,0,.08-.06,0-.11c.14-.25.39-.5.39-.8.11,0,.27-.3.33-.47,0,0,0,.06,0,.06.05-.25.24-.36.35-.58a1,1,0,0,0,.17-.27c.14-.06.16-.25.33-.33s0-.06,0-.14a2.58,2.58,0,0,0,.66-.83s.06,0,.06.06c0-.17.19-.22.25-.42,0,0,0,0,0,0s0-.05,0-.13,0,.05,0,.08c.05-.25.3-.28.41-.61.16,0,.16-.22.25-.33s0,.11.08.11,0-.16,0-.16,0-.14.19-.14-.05,0-.05-.11.08-.08.16,0a9.26,9.26,0,0,0,.41-1.87,2.48,2.48,0,0,0-.57.71,9.6,9.6,0,0,0-.88,1.05c-.09,0-.09.13-.2.13v.14c-.52.36-.85.88-1.73.85a3.6,3.6,0,0,1-1.76-1.07,2.06,2.06,0,0,1-.06-1,11.37,11.37,0,0,1,1.57-4.7s0,0,.11,0,0-.06,0-.06a6.34,6.34,0,0,1,.94-1.12c.08,0,.22,0,.27,0a2.7,2.7,0,0,1,1,.05c.8.17,1,.85.91,1.79a1.07,1.07,0,0,1-.52.63c-.09-.11-.14,0-.25,0,0-.44-.17-1-.22-1.43a6.28,6.28,0,0,0-1.18,1.82,8.08,8.08,0,0,0-1.16,3.85c0-.06.16,0,.19-.09a40.26,40.26,0,0,0,3.22-4c.06,0,.06,0,.06.08s0-.27.16-.24a9.68,9.68,0,0,1,.85-1.21c0-.53.22-1,.22-1.41,0-.08.09-.41,0-.44a.7.7,0,0,1,.49-.13c.17.05.25.16.36.19s.06,0,.11,0a1.1,1.1,0,0,1,.55.72,2,2,0,0,1-.11.82,12.49,12.49,0,0,1-.36,2,15.16,15.16,0,0,0-.19,1.74c.06,0,0-.17.11-.09s0,0,.06-.16,0,.08.05.11c.08-.14.08-.28.22-.3s-.05,0-.05.11.11-.39.33-.33,0-.09,0-.14,0,.08.06.08,0-.06,0-.08.11.08.11,0S142.39,20.5,142.39,20.42Zm-7.59.52a8.85,8.85,0,0,1,2.2-4.15s.06-.06,0-.06a10,10,0,0,0-2.53,6C134.61,22.1,134.66,21.52,134.8,20.94Zm-.33,1.79s0,0,0,.11S134.5,22.73,134.47,22.73Zm.19,7.7s0-.08,0-.08S134.69,30.4,134.66,30.43Zm.41-.93c-.08,0,0-.06,0-.09Zm.39-.8c-.06,0-.11.11,0,.14S135.46,28.78,135.46,28.7Zm0-.11s0,0,0,.05,0-.13,0-.19h.06C135.57,28.51,135.51,28.51,135.51,28.59Zm1.3,2.31c0,.11-.17.19-.25.25s-.06,0-.06,0-.05,0-.05.08,0,0,0,0h.05s-.08,0-.08.08.08,0,.14-.08a3.74,3.74,0,0,0,.91-1.21c-.14.11-.14.27-.25.33v-.06A15.7,15.7,0,0,0,138.76,26a6,6,0,0,0-1,1.43.76.76,0,0,0-.31.39c-.08-.06-.08.11-.14.11a10.57,10.57,0,0,0-1.54,3.22c0,.13,0,.24.06.33s.05,0,.19,0-.08,0,0-.08a2.31,2.31,0,0,0,.8-.6S136.78,30.9,136.81,30.9ZM135.93,18c0-.05,0-.05,0,0S135.93,18.05,135.93,18Zm.13,13.46a.06.06,0,0,0,.06-.06c.14,0,0-.11,0,0A.06.06,0,0,0,136.06,31.48Zm.2-.14c.05,0,.13,0,.13-.08s-.11,0-.13.08S136.26,31.42,136.26,31.34Zm.05.05s0-.05,0,0S136.31,31.42,136.31,31.39Zm.17-4.43s0,0-.06,0S136.45,27,136.48,27Zm0,4.27h.06v-.08h-.06Zm.28-.41s0,0,0,.08a1.8,1.8,0,0,0,.41-.55C137,30.46,136.94,30.68,136.78,30.82Zm.06-14s0,0,.08,0S136.84,16.76,136.84,16.79Zm.74,13c0,.08-.14.13-.08.19S137.63,29.85,137.58,29.83Zm.08-.22c.11,0,.14-.14.17-.28s.24-.25.11-.36c0,.17-.14.2-.11.36S137.74,29.52,137.66,29.61Zm.39-.77s-.06-.09,0,0C138,28.86,138.07,29,138.05,28.84Zm0-.17s0,.08,0,.08S138.13,28.67,138.1,28.67Zm0-.22s.08,0,.08,0S138.13,28.42,138.13,28.45Zm.16-.52c0,.05-.08.08,0,.11S138.4,27.87,138.29,27.93Zm.11-.3c0,.05-.11.16,0,.22C138.38,27.76,138.49,27.63,138.4,27.63Zm.09-.36c0,.05,0,.08,0,.11S138.57,27.3,138.49,27.27Zm.38-1.16c-.08,0-.08.06-.11.09S138.82,26.14,138.87,26.11Zm-.05-.08c.05,0,.05,0,.08,0S138.82,26,138.82,26Zm.16-2.17c.06,0,0,0,0,0S139,24,139,23.86Zm2.42-2.48a0,0,0,0,0,0,0S141.4,21.35,141.4,21.38Zm.63-.33s0,0,0,0A0,0,0,0,0,142,21.05Zm.66-.85a0,0,0,0,0,0,0A0,0,0,0,0,142.69,20.2Zm.14.08c.09.06,0-.06,0,0S142.83,20.42,142.83,20.28Zm0-.25s.06,0,.06,0S142.86,20,142.86,20Zm.14.09c-.08,0-.14.1-.08.13S143,20.17,143,20.12Zm.05-.28s0,0-.05.05S143.11,19.84,143.05,19.84Zm.47-.22c0,.05-.08.08,0,.11S143.55,19.67,143.52,19.62Zm.55.47c.11,0,0-.09,0,0S144.07,20.2,144.07,20.09Zm.17-1.24s0,0,.08-.06S144.24,18.79,144.24,18.85Zm.11,1h.05v0c-.05,0-.05,0-.05,0S144.35,19.89,144.35,19.87Zm.82-1.74s0,.06.06,0S145.17,18.11,145.17,18.13Zm.52,0v0h-.05v0Zm.17-.11s0-.05,0,0S145.86,18.05,145.86,18Z"/><path class="cls-3" d="M149.1,19.12c.06,0,0,.06.11.06s.11-.06.11-.14c.11.08.22-.14.28-.08a.57.57,0,0,1,.11-.19s0,.13,0,.13.2-.11.17-.19c.14,0,.19-.16.27-.08s0,0,0-.08c.42-.09.66-.44,1.05-.44.06-.06.14-.2.22-.14a1.23,1.23,0,0,1,.5-.25c0,.08,0,.14.08.14a.2.2,0,0,1-.14.05c.11.11.19-.11.28,0A.37.37,0,0,1,152,18c.05.08.05.08,0,.14a.3.3,0,0,1-.17.08c0,.08.11,0,.08.08s-.08,0-.11,0c0,.2-.25.17-.33.31s0,0-.05,0,.05,0,.05,0h.08c-.13.08-.08.24-.27.22,0,.11.16,0,.14.11s-.17.13-.25.05c0,.08-.06.08-.06.17A14.8,14.8,0,0,1,148.25,21v.25s0-.08,0-.08a1.05,1.05,0,0,0-.13.55c-.09.08-.11-.06-.14.08s0,.11,0,.22c-.17.22-.33.66-.52,1s-.5.66-.64.55c0,.11,0,.11,0,.17a3.56,3.56,0,0,1-1.27.6c-.08.06,0-.08-.06-.08s0,.06,0,.08a1.75,1.75,0,0,1-1.46-.46,2.65,2.65,0,0,1-1-1.35,6.37,6.37,0,0,1,.16-2.06c0,.27-.11.71-.13,1.12s0,.58,0,.77.11.09.05.22c.11,0,0-.13.11-.08a.75.75,0,0,0,.11.5s0,0,0,0a4.48,4.48,0,0,1-.11-.5,6.87,6.87,0,0,1,.17-2.12s0-.08,0-.14,0,.06,0,.14c-.11-.14.11-.24,0-.47a3.67,3.67,0,0,0-.16.53.51.51,0,0,1,.11-.47,7.11,7.11,0,0,1,1-2.72c-.06-.09-.06.08-.17.08s0,0,0-.08a0,0,0,0,0,0,0,0,0,0,0,0,0,0s0,.05-.06.05c.42-1.07,2.18-.88,3.17-.41,0,.11.11.11.14.19s-.09.08,0,.14,0-.06,0-.08a3.88,3.88,0,0,1,1,2.42c.14-.14.41-.14.47-.31C149,19.29,149.05,19.18,149.1,19.12Zm-6,2.62,0,0C143.05,21.57,143.11,22,143.05,21.74Zm0,.11v0h0v0Zm0,.36s0-.06,0-.14S143.11,22.26,143,22.21Zm.09-.61c0,.11-.11-.05-.06-.05S143.05,21.6,143.11,21.6Zm-.06-.19v-.06C143.16,21.33,143.16,21.49,143.05,21.41Zm0,1.18a.15.15,0,0,0,.08.14C143.13,22.67,143.13,22.59,143.05,22.59Zm.08-1.32c-.08,0,0-.11,0-.22S143.16,21.24,143.13,21.27Zm.06-.25c-.08-.11,0-.27,0-.33S143.16,20.89,143.19,21Zm.08-.41c-.08,0,0-.08,0-.16S143.27,20.55,143.27,20.61Zm.11-.85c-.08,0,0,.16,0,.08S143.38,19.79,143.38,19.76Zm.17,0c-.06,0-.09.08-.09,0s.09-.2,0-.2c0,.2-.08.36,0,.53A.6.6,0,0,1,143.55,19.76Zm-.06-.36h0c0,.06-.08.11,0,.14a.12.12,0,0,0,0-.14s0,0,0-.06,0-.05,0,0S143.49,19.37,143.49,19.4Zm.11-.14v.08c.11-.16.11-.49.25-.66-.17.11-.19.39-.25.58C143.55,19.18,143.46,19.29,143.6,19.26Zm0,.2c-.11,0-.11.21,0,.24A.72.72,0,0,1,143.63,19.46Zm.8-2.23c-.22,0-.39.74-.58,1,0,.27-.33.66-.25.85a11,11,0,0,1,1-1.9c-.11,0-.08.14-.16.14Zm-.5,1.29c-.08,0-.11.05-.11.11S143.88,18.55,143.93,18.52Zm.19-1.21c0,.11-.11,0,0,0Zm.64,6.16s.05,0,.08,0,.08,0,0,0A3.45,3.45,0,0,0,146,22.21c0,.3-.25.44-.36.66,0,0,0,0,0,0s0,0,0,0,0,0,0,0h0a4.74,4.74,0,0,0,.53-.83c-.09,0-.09.11-.17.11s-.19,0-.33-.08a2.84,2.84,0,0,1-1.43-.41c-.08.57-.14,1.43.28,1.81.11,0,.16-.14.22,0C144.65,23.42,144.76,23.53,144.76,23.47Zm-.39-6.16c0,.08.08,0,.06,0Zm1.73,0a8.3,8.3,0,0,0-1,1.43,3.36,3.36,0,0,0-.33,2.37c.5.13.85-.25,1.21-.22.08,0,0,0,0-.06.13,0,.13-.14.27-.14s0,.06,0,.06,0-.14.17-.14,0,0,0,.06,0,.08,0,0c.19,0,0-.12.16-.14s-.08.08,0,.08,0-.06,0-.11c.22,0,.06-.38.25-.41,0,.19-.08.16-.06.36a3.2,3.2,0,0,0,.14-1.93c-.14-.14-.11-.44-.3-.55a.23.23,0,0,1,0,.25,3.8,3.8,0,0,0-.28-.58c.11.05.11.16.17.22a.6.6,0,0,0-.33-.61c0,.17.22.2.16.39C146.27,17.58,146.27,17.39,146.1,17.31Zm-1,6v.05s0,0,0-.05,0-.06,0,0Zm.16-.06s0,0,0,0S145.25,23.31,145.25,23.25Zm.28-.27c-.11.11.13-.09,0-.06Zm.63-2.2c-.06,0-.14.08-.06.11A.15.15,0,0,0,146.16,20.78Zm0-3.33s0,0-.06,0S146.13,17.47,146.16,17.45Zm.61,1.18a.37.37,0,0,0-.14-.41A.87.87,0,0,0,146.77,18.63Zm.08.05c0,.39.05.91.05,1.24,0,0,0-.05-.05-.08a.18.18,0,0,0,.05.25.15.15,0,0,1-.13-.09,4.19,4.19,0,0,0,0-1.37C146.82,18.71,146.82,18.63,146.85,18.68Zm.11,1.54s0,0,0,0S147,20.2,147,20.22Zm.77,2.12h0s0-.11,0-.11,0,.09,0,.11S147.76,22.43,147.73,22.34Zm.25-.41s0-.05,0-.11S148,21.88,148,21.93Zm.19-.49s0-.06,0-.06h.05S148.17,21.44,148.17,21.44Zm1.1-2.26c0,.05,0,.16,0,.11S149.38,19.18,149.27,19.18Zm.38-.25c.06,0,.06,0,.06,0S149.65,18.9,149.65,18.93Zm.8-.38s0,0,0,0S150.45,18.57,150.45,18.55Zm.19-.09v-.05h0v.05Zm.11-.08h0l0,0S150.78,18.41,150.75,18.38Zm.17-.08v-.06h-.06v.06Zm.11-.06s.05,0,.05,0S151,18.22,151,18.24Zm.08,0s.08,0,.08-.06S151.11,18.13,151.11,18.19Zm.28-.14s.05,0,.05,0S151.39,18,151.39,18.05Z"/><path class="cls-3" d="M152.93,16.87c.08,0,.08,0,.08-.06.05.09-.25.39-.33.55-.22.33-.33.75-.55,1.05,0,.05-.06.05-.08.11a.34.34,0,0,1,0,.16c-.11.33-.39.66-.39.91,0,0,0,.2-.11.17a1.59,1.59,0,0,1-.25.82c-.19.94-.41,2.78,0,3.5a1.2,1.2,0,0,0,.47.9c.13-.11.35-.11.41-.3.05,0,.08,0,.11,0,.27-.25.55-.47.82-.72,0,.06,0,.06,0,.09a.21.21,0,0,0-.11.08c0,.05.11,0,.11-.08s.13-.09,0-.09c.14,0,.17-.33.33-.27s0-.06,0-.08c1-1.13,1.9-2.29,2.75-3.52,0,0,0,.05.06.05a6.08,6.08,0,0,1,.77-.91c.08-.3.38-.41.49-.71.5-.2.55-.8,1.13-.91-.05.14,0,.05.08.11a.72.72,0,0,1-.13.27c.22.06-.22.42-.17.58a3.78,3.78,0,0,1-.19.33c0,.08,0,0,.08,0-.25.41-.55.83-.74,1.19,0,.05.08,0,.11,0-.25.38-.5.74-.69,1.1-.05,0-.05,0-.08,0s.08,0,.08,0H157a9,9,0,0,0-.52.93c-1,1.24-1.79,2.67-3.3,3.39,0,.08.06.08,0,.13s0,0,0-.11a2,2,0,0,1-1.21.17,2.9,2.9,0,0,1-1.92-1h-.14c0-.17-.25-.39-.28-.61s-.13-.41-.08-.58,0-.05-.08-.05,0-.19-.08-.3.05,0,.08,0-.06-.16-.06-.22.06,0,.06-.11-.06.09-.06.11c-.08-.19.06-.3,0-.46,0,0,0,0,.06,0s-.06,0-.06,0a1,1,0,0,1,.11-.94c0-.08-.14-.08-.08-.25.08,0,0,.14,0,.09s-.09-.11,0-.25c0,0,0,.08,0,.08s0-.19.06-.22,0,0-.11,0a6,6,0,0,1,.44-1.56,1.43,1.43,0,0,1,.35-.91c.11-.61.47-.86.64-1.41.22-.08.19-.33.38-.38v-.17c.06,0,.09,0,.06.06.19-.28.49-.52.52-.77,1,0,1.84-.77,2.89-.25a2.48,2.48,0,0,0,.38.36,4.3,4.3,0,0,1,.17,1.62c0,.11-.08.08-.11.11,0,.8-.69.66-1.05,1-.27-.74,0-2-.55-2.53a1.65,1.65,0,0,0-.6.66C153,16.81,153,16.81,152.93,16.87Zm-3.47,5c0,.11-.06.47,0,.47S149.54,21.93,149.46,21.9Zm0-.33c.06,0,.06.09,0,.11h0Zm.06-.52v.06h0v-.06Zm.16-.63c0,.19-.11.41,0,.58C149.6,20.78,149.76,20.53,149.65,20.42Zm.14-.33c-.08,0-.06.13-.08.19S149.76,20.17,149.79,20.09Zm0,4.65h0Zm.11-5.18c0,.14-.17.36-.08.47C149.82,19.87,150,19.62,149.9,19.56Zm.14-.3c0,.08-.14.11,0,.14S150.12,19.29,150,19.26Zm1.26-2.45c0,.09-.16.11-.05.14S151.41,16.87,151.3,16.81Zm.64-.77a1.38,1.38,0,0,0-.42.58C151.63,16.43,151.88,16.24,151.94,16Zm1.76,7.51V23.5h-.09v.05Zm.68-.79V22.7h0v.06Zm.14-.28s-.14.06,0,.08S154.58,22.51,154.52,22.48Zm.14-.22c0,.08-.11.11-.11.22C154.6,22.43,154.71,22.32,154.66,22.26Zm.41-.44h0s0,.06,0,.08S155,21.85,155.07,21.82Zm.25-.38c.11,0,0-.09,0,0S155.35,21.57,155.32,21.44Zm.11-.11s-.06,0-.06.05S155.51,21.33,155.43,21.33Zm.14-.22h.08a0,0,0,0,1,0,0v0h-.09s0,0,0,0Zm.16-.25c0,.05,0,.05,0,.14S155.84,20.86,155.73,20.86Zm.19-.19s0,0,0,.08S156,20.67,155.92,20.67Zm.31-.39c0,.06-.06.08,0,.11S156.25,20.34,156.23,20.28Zm.41-.41c-.08,0-.08,0-.11,0A.2.2,0,0,0,156.64,19.87Zm.74.52c.09,0,.11-.05.11-.14h.06v-.08c-.06,0-.06,0-.06.08S157.41,20.34,157.38,20.39Zm1.16-1.93c0,.09,0,.14-.14.14C158.46,18.55,158.46,18.46,158.54,18.46Z"/><path class="cls-3" d="M163.08,18.27c0-.05-.11.14-.14.17,0-.17.19-.36.3-.53.14.06.17.14.22,0,.08.14-.08.28-.05.5-.11,0,0,.14-.06.22s.06-.06.08-.08a7.68,7.68,0,0,1-.35,1s0,0,0-.05a8.18,8.18,0,0,0-.44,1.32h-.05c.05-.11-.09,0,0,0-.17.27-.2.49-.36.79,0,0-.06,0-.08,0s-.11.14-.09.28H162c-.11.41-.47.69-.6,1.15,0,0-.12,0-.12,0s0,.05,0,.16c-.35.44-.74.91-1.15,1.38,0,0,0,0,0,.11s0,.08-.08.08-.08.14-.14.14a.15.15,0,0,0-.11,0c-.08.16-.3.22-.33.47a2.57,2.57,0,0,1-1.51.49c-.19-.11-.5-.14-.69-.24s-.11-.14-.19-.2a2,2,0,0,1-1.16-1.81,3.12,3.12,0,0,1,.06-1.05c0,.22,0,.39,0,.69a8.4,8.4,0,0,0,.08-.85c-.11-.06,0,.11-.08.08s0-.14,0-.19.06.05.14,0a5.89,5.89,0,0,0,0,.94,12.89,12.89,0,0,1,.52-3.17,6.11,6.11,0,0,1,.25-1.15,2.23,2.23,0,0,0-.28.91c-.11-.25.11-.47.11-.75-.19.28-.16.75-.33,1a20.07,20.07,0,0,1,.66-2.48c.09,0,.11-.11.17-.13s-.08,0-.06-.14c.39-.06,1.32-.28,1.65.16-.11.25-.13.55-.22.77s-.05.69-.11,1c0,.05-.11.08-.13.13-.06.22-.09.5-.14.69-.06.39-.25.86-.28,1.3-.05.27-.08.85-.16,1.1a7.18,7.18,0,0,0,0,2.42c.31-.2.53-.5.83-.72a3.31,3.31,0,0,1-.28.33,21,21,0,0,0,3.11-3.79s0-.09.11,0c.25-.61.72-1,1-1.6A2.28,2.28,0,0,0,163.08,18.27ZM156,22.07c0-.06,0-.14.14-.14C156,22,156,22.07,156,22.07Zm0,1.24s0,.11.06.08S156,23.31,156,23.31Zm.08-1.46c-.05,0,0-.14,0-.17S156,21.82,156,21.85Zm.09.25s0,.13,0,.13S156,22.1,156.12,22.1Zm0,1.1c0,.13-.08.19,0,.3C156.09,23.42,156.17,23.25,156.09,23.2Zm0-1.79s0,0,0,0S156,21.44,156.09,21.41Zm.08-.39c.25-.35.11-.8.36-1.07a17.7,17.7,0,0,0-.41,2,1.88,1.88,0,0,1,.08-1.1C156.2,20.91,156.14,20.91,156.17,21Zm-.08,2.51v.33C156.17,23.83,156.12,23.55,156.09,23.53Zm0,.46s0-.11,0-.08V24S156.12,24,156.14,24Zm0-2.94c0,.11-.08.28,0,.33S156.25,21.16,156.17,21.05Zm0,3c0,.06,0,.19.06.11S156.2,24,156.14,24Zm0,.19c.06,0,0,.17.06.14S156.17,24.16,156.14,24.21Zm.22-4.09a3.55,3.55,0,0,1-.16.71A1.33,1.33,0,0,1,156.36,20.12Zm.39-1.19a.18.18,0,0,0,0-.14h0s.08-.11,0-.16-.05.11-.05.16S156.67,18.93,156.75,18.93Zm.11-.52s0,0,0,.11S156.91,18.38,156.86,18.41Zm0,.14c0,.05-.08.08,0,.13S157,18.55,156.91,18.55ZM157,18c0,.05-.09.16,0,.22S157.11,18,157,18Zm.24-.55a0,0,0,0,0,0,0A0,0,0,0,0,157.24,17.42Zm2.26-3.33a2.39,2.39,0,0,1-.55.52c-.33,0-.47.2-.83.2A10.42,10.42,0,0,1,157.9,13c.42,0,.61-.36,1.19-.33a1.06,1.06,0,0,1,.68.66,3,3,0,0,1-.13.77C159.58,14.14,159.55,14,159.5,14.09Zm-.83,10c-.08,0,.06-.05,0-.11C158.76,24.05,158.67,24.08,158.67,24.13Zm.17-.16c-.06-.06,0-.14.08-.14S158.81,23.88,158.84,24Zm.08-.14c0-.08.06,0,.06-.11C159,23.8,159,23.83,158.92,23.83Zm.08-.17c.06,0,.06.06,0,.06h0A.13.13,0,0,1,159,23.66Zm.11-.11a.36.36,0,0,1,.14-.13C159.22,23.5,159.22,23.58,159.11,23.55Zm.36-.38s0,0,0,0A0,0,0,0,1,159.47,23.17Zm.11,0c-.08-.16.22-.38.33-.49C159.83,22.84,159.64,22.89,159.58,23.14Zm.36-.55s0,.06,0,.06S159.91,22.59,159.94,22.59Zm.05-.11c.09,0,0,.11-.05.11S160,22.51,160,22.48Zm.09,0c-.09-.05,0-.11,0-.14h0C160.13,22.4,160.1,22.4,160.08,22.48Zm.22-.44s.08,0,.08.06h-.08Zm.11,0c-.09,0,0,0,0-.08S160.41,22,160.41,22Zm.16-.24c-.11,0,.06-.17.14-.2A.69.69,0,0,1,160.57,21.77Zm.14-.2v-.05h0S160.74,21.57,160.71,21.57Zm.22-.24a.49.49,0,0,1-.19.19C160.82,21.44,160.79,21.27,160.93,21.33Zm.33-.55c.05,0,0,.13-.06.13S161.26,20.86,161.26,20.78Zm.11-.09c-.06,0,0-.14.08-.14A.3.3,0,0,1,161.37,20.69Zm.17-.24c0,.05,0,.05-.06.05S161.48,20.45,161.54,20.45Zm-.06.24c0,.06,0,.09.06.09S161.56,20.67,161.48,20.69Zm.06-.24c0-.06.05-.09.08-.17C161.62,20.39,161.59,20.42,161.54,20.45Zm.19-.2c-.11-.05.05-.13,0-.19S161.73,20.2,161.73,20.25Zm.08-.22c0-.08.06-.11.11-.14S161.92,20,161.81,20Zm.28-.36v.06H162v-.06Zm0-.08s0-.16.08-.13S162.14,19.54,162.14,19.59Zm.28-.38s0-.09,0-.09S162.44,19.21,162.42,19.21Zm.13-.28c0,.11,0,.11,0,.14S162.47,18.9,162.55,18.93Zm0,0c0-.05,0-.08.09-.08S162.64,18.93,162.55,18.93Zm.14-.14h0Zm.06,0c-.14-.06,0-.17.11-.22A.75.75,0,0,0,162.75,18.77Zm.13-.31c.06,0,0,.14,0,.09S162.88,18.52,162.88,18.46Zm0,.28s.06,0,.06,0S162.88,18.71,162.88,18.74Zm.39-.8c-.06.11-.14.17-.17.3A.31.31,0,0,0,163.27,17.94Z"/><path class="cls-3" d="M166.87,19.12c.06,0,0,.06.11.06s.11-.06.11-.14c.11.08.22-.14.28-.08a.57.57,0,0,1,.11-.19c.05,0,0,.13.05.13s.19-.11.17-.19c.13,0,.19-.16.27-.08s0,0,0-.08c.41-.09.66-.44,1.05-.44,0-.06.13-.2.22-.14a1.26,1.26,0,0,1,.49-.25c0,.08,0,.14.08.14a.17.17,0,0,1-.13.05c.11.11.19-.11.27,0a.33.33,0,0,1-.22.08c.06.08.06.08,0,.14a.24.24,0,0,1-.16.08c0,.08.11,0,.08.08s-.08,0-.11,0c0,.2-.25.17-.33.31a.07.07,0,0,0-.06,0,0,0,0,0,0,.06,0h.08c-.14.08-.08.24-.27.22,0,.11.16,0,.13.11s-.16.13-.24.05c0,.08-.06.08-.06.17A14.8,14.8,0,0,1,166,21v.25s0-.08,0-.08a1.07,1.07,0,0,0-.14.55c-.08.08-.11-.06-.13.08s0,.11,0,.22c-.17.22-.33.66-.53,1s-.49.66-.63.55c0,.11,0,.11,0,.17a3.51,3.51,0,0,1-1.26.6c-.08.06,0-.08-.06-.08s0,.06,0,.08a1.75,1.75,0,0,1-1.46-.46,2.6,2.6,0,0,1-1-1.35,5.86,5.86,0,0,1,.16-2.06,10,10,0,0,1-.14,1.12c0,.28,0,.58,0,.77s.11.09.06.22c.11,0,0-.13.11-.08a.75.75,0,0,0,.11.5s0,0,0,0a3,3,0,0,1-.11-.5,7.18,7.18,0,0,1,.16-2.12c.06,0,0-.08,0-.14s0,.06,0,.14c-.11-.14.11-.24,0-.47a2.74,2.74,0,0,0-.16.53.51.51,0,0,1,.11-.47,7.27,7.27,0,0,1,1-2.72c-.05-.09-.05.08-.16.08s0,0,0-.08,0,0,0,0,0,0,0,0,0,.05-.06.05c.41-1.07,2.17-.88,3.17-.41,0,.11.11.11.13.19s-.08.08,0,.14,0-.06,0-.08a3.94,3.94,0,0,1,1.05,2.42c.14-.14.41-.14.47-.31C166.76,19.29,166.82,19.18,166.87,19.12Zm-6.05,2.62,0,0C160.82,21.57,160.87,22,160.82,21.74Zm0,.11v0h0v0Zm0,.36s0-.06,0-.14S160.87,22.26,160.79,22.21Zm.08-.61c0,.11-.11-.05-.05-.05S160.82,21.6,160.87,21.6Zm-.05-.19v-.06C160.93,21.33,160.93,21.49,160.82,21.41Zm0,1.18c0,.08.05.14.08.14S160.9,22.59,160.82,22.59Zm.08-1.32c-.08,0,0-.11,0-.22S160.93,21.24,160.9,21.27ZM161,21c-.09-.11,0-.27,0-.33S160.93,20.89,161,21Zm.08-.41c-.08,0,0-.08,0-.16S161,20.55,161,20.61Zm.11-.85c-.08,0,0,.16,0,.08S161.15,19.79,161.15,19.76Zm.16,0c-.05,0-.08.08-.08,0s.08-.2,0-.2c0,.2-.08.36,0,.53A.7.7,0,0,1,161.31,19.76Zm-.05-.36h0c0,.06-.08.11,0,.14a.12.12,0,0,0,0-.14s0,0,0-.06,0-.05,0,0S161.26,19.37,161.26,19.4Zm.11-.14v.08c.11-.16.11-.49.25-.66-.17.11-.2.39-.25.58C161.31,19.18,161.23,19.29,161.37,19.26Zm0,.2c-.11,0-.11.21,0,.24A.72.72,0,0,1,161.4,19.46Zm.79-2.23c-.22,0-.38.74-.57,1,0,.27-.33.66-.25.85a9.76,9.76,0,0,1,1-1.9c-.11,0-.08.14-.17.14Zm-.49,1.29c-.08,0-.11.05-.11.11S161.64,18.55,161.7,18.52Zm.19-1.21c0,.11-.11,0,0,0Zm.63,6.16s.06,0,.09,0,.08,0,0,0a3.34,3.34,0,0,0,1.15-1.21c0,.3-.24.44-.36.66a0,0,0,0,0,0,0s0,0,0,0,0,0,0,0h0A4.74,4.74,0,0,0,164,22c-.09,0-.09.11-.17.11s-.19,0-.33-.08a2.84,2.84,0,0,1-1.43-.41c-.08.57-.14,1.43.27,1.81.11,0,.17-.14.22,0C162.41,23.42,162.52,23.53,162.52,23.47Zm-.38-6.16c0,.08.08,0,.05,0Zm1.73,0a8.3,8.3,0,0,0-1,1.43,3.36,3.36,0,0,0-.33,2.37c.49.13.85-.25,1.21-.22.08,0,0,0,0-.06.14,0,.14-.14.28-.14s0,.06,0,.06,0-.14.16-.14,0,0,0,.06,0,.08,0,0c.19,0,0-.12.16-.14s-.08.08,0,.08,0-.06,0-.11c.22,0,0-.38.25-.41,0,.19-.09.16-.06.36a3.28,3.28,0,0,0,.14-1.93c-.14-.14-.11-.44-.31-.55a.2.2,0,0,1,0,.25,3,3,0,0,0-.27-.58c.11.05.11.16.17.22a.6.6,0,0,0-.33-.61c0,.17.22.2.16.39C164,17.58,164,17.39,163.87,17.31Zm-1,6v.05c.06,0,.06,0,.06-.05s0-.06,0,0Zm.17-.06s0,0,0,0S163,23.31,163,23.25Zm.28-.27c-.11.11.13-.09,0-.06Zm.63-2.2c-.06,0-.14.08-.06.11A.15.15,0,0,0,163.93,20.78Zm0-3.33s0,0-.06,0S163.9,17.47,163.93,17.45Zm.6,1.18a.34.34,0,0,0-.14-.41A1,1,0,0,0,164.53,18.63Zm.09.05c0,.39,0,.91,0,1.24,0,0,0-.05,0-.08a.18.18,0,0,0,0,.25c-.08,0-.11-.06-.14-.09a3.71,3.71,0,0,0,0-1.37C164.59,18.71,164.59,18.63,164.62,18.68Zm.11,1.54s.05,0,.05,0S164.73,20.2,164.73,20.22Zm.77,2.12h0s0-.11,0-.11,0,.09,0,.11S165.52,22.43,165.5,22.34Zm.24-.41s0-.05,0-.11S165.77,21.88,165.74,21.93Zm.2-.49s0-.06,0-.06H166S165.94,21.44,165.94,21.44Zm1.1-2.26c0,.05,0,.16,0,.11S167.15,19.18,167,19.18Zm.38-.25c.06,0,.06,0,.06,0S167.42,18.9,167.42,18.93Zm.8-.38s0,0,0,0S168.22,18.57,168.22,18.55Zm.19-.09v-.05h0v.05Zm.11-.08h0l0,0S168.55,18.41,168.52,18.38Zm.17-.08v-.06h-.06v.06Zm.11-.06s0,0,0,0S168.8,18.22,168.8,18.24Zm.08,0s.08,0,.08-.06S168.88,18.13,168.88,18.19Zm.27-.14s.06,0,.06,0S169.15,18,169.15,18.05Z"/><path class="cls-3" d="M167.42,19.18c-.06.05,0-.14,0-.17S167.42,19.12,167.42,19.18Zm0,.19c-.06,0,0-.08,0-.14S167.42,19.34,167.42,19.37Zm2,3.5a0,0,0,1,0,0,0c.11,0,.11-.06.17-.06-.11.19-.39.28-.53.55,0,0,0,0,0,0s.14-.11.25-.11a.88.88,0,0,1-.25.22c.09.08,0,.06,0,.17s0,0,0,0,0,0,0,0-.19.24-.19.41c.11-.06,0,.25.14.36a4.84,4.84,0,0,0,1.9-.55c.05,0,.08,0,.08,0a5.87,5.87,0,0,0,1.07-.94c.06.09.06,0,0,0s.22-.05.22-.24c0,0,0-.06,0-.09s0,0,0,0,0,0,0,.09,0-.11,0-.17-.14,0-.19-.05c-1.08-.42-2.48-.44-3.41-1a6.25,6.25,0,0,1-.72-.74c-.11-.39-.41-.72-.49-1.05-.09,0,0,0,0-.06s-.08,0-.08-.1,0,0,.06,0c-.06-.67.27-.86.43-1.33.28-.16.33-.52.66-.66,0,.09,0,.06,0,.14a.22.22,0,0,0,.17-.16c.05.08.05-.09.11-.09s.08-.11.1-.13.06,0,.06,0,.06-.06.06-.08v0s0,0,0,0v0s-.06,0-.06.08-.06,0-.06,0-.05.05-.1.13a.05.05,0,0,1-.06-.05,12,12,0,0,1,1.73-1.49s0-.05,0-.11a2.15,2.15,0,0,0,.52-.3c.09,0,0,.08,0,.14A1.19,1.19,0,0,1,172,15c0,.14-.19,0-.19.14A.24.24,0,0,0,172,15c0-.08-.19,0-.19-.17s.08.09.14.06,0-.08,0-.14.19.08.22,0c.66.25,2,.08,2.11,1.16-.16.19-.19.57-.35.82-.11,0,0-.08-.06-.08s0,.08,0,.11,0,0,0-.06,0,.11-.06.17,0-.06,0-.08-.06.13-.11.16,0-.16,0-.16a.59.59,0,0,1-.17.16s0,0,0-.08-.06.11-.09.16-.16-.13-.19,0c0-.27.06-.49,0-.8a14.59,14.59,0,0,0-3.93,3.14,5.21,5.21,0,0,1-.44.8.39.39,0,0,1-.06.3,2.1,2.1,0,0,0,1.1.33,6.58,6.58,0,0,1,3.52,1.68c.17.3.41.52.3.91A2.73,2.73,0,0,1,171.93,25a4.58,4.58,0,0,1-2.12.58c-.08-.08-.19-.08-.35-.08-.83-.17-1.16-.89-1.63-1.46.06-.09-.08-.11-.14-.22s.14,0,.17.05.11-.22,0-.27a4.37,4.37,0,0,1,1.6-1.24.17.17,0,0,0,.06.14c0,.11-.09.11-.17.13s.11,0,.14,0-.08.11-.14.17Zm-1.48.82a0,0,0,0,0,0,0s0,0,0-.06S167.89,23.66,167.89,23.69Zm.16-5.5s0-.06,0,0S168.05,18.22,168.05,18.19Zm.11-.17s-.14.11,0,.11C168.08,18.08,168.24,18.05,168.16,18Zm0,.2s0,0,0,.05,0,.11,0,0,0,0,0-.05,0,0,0,0,0-.06,0,0A0,0,0,0,0,168.19,18.22Zm.14-.17c-.09,0-.09.06-.11.08S168.3,18.08,168.33,18.05Zm.24,4.84h0S168.57,22.89,168.57,22.89Zm0-5.42a.13.13,0,0,1,.14-.11.15.15,0,0,1,0,.09C168.63,17.42,168.63,17.47,168.57,17.47Zm.12.17a5.81,5.81,0,0,0,.71-.69,3.87,3.87,0,0,0-.71.69C168.57,17.64,168.69,17.75,168.69,17.64Zm.19,6.57a.24.24,0,0,0-.06.11C168.88,24.32,168.9,24.21,168.88,24.21Zm.14-1.65a0,0,0,0,1,0,0A0,0,0,0,1,169,22.56Zm.19-.08a.14.14,0,0,1,.14-.11S169.32,22.48,169.21,22.48Zm.19-5.69s-.08,0-.08,0S169.4,16.81,169.4,16.79Zm0,5.58h0Zm.06-5.61c0-.06.11,0,.08-.11s0-.08,0,0S169.37,16.7,169.46,16.76Zm0,.16s.22-.13.19-.19a.19.19,0,0,1-.17.08C169.48,16.87,169.48,16.9,169.46,16.92Zm.11,7.32c0,.06,0,.06,0,.06S169.57,24.24,169.57,24.24Zm.11-7.7v0c-.06,0,0,0,0,0v0s0,0,0-.06.11,0,.11-.05-.08,0-.11.05S169.68,16.48,169.68,16.54Zm.13.08c-.08,0-.11.08-.13.11s.11-.08.13-.11,0,0,0,0,0,0,0,0Zm.06-.3c0,.05,0,.08,0,.11S169.9,16.37,169.87,16.32Zm.08.25c.06-.14.19-.14.25-.28s0-.08,0,0S169.9,16.46,170,16.57Zm.08,7.59s-.05,0-.08,0A.1.1,0,0,1,170,24.16Zm0-8c0,.09-.08.09-.08.14S170.17,16.21,170.06,16.15Zm.22-.11c-.08,0-.14.09-.08.11S170.31,16.13,170.28,16Zm.11.09s0,0,0,0S170.39,16.15,170.39,16.13Zm.25,7.92V24h0v.06Zm.22-8.28s-.08,0-.08.11S170.86,15.82,170.86,15.77Zm-.06-.06h.06c0-.05,0-.08,0-.08s0,0,0,0Zm.2,0c-.06,0-.11,0-.11,0S171,15.77,171,15.74Zm.27-.19c-.11,0-.14,0-.16.08S171.22,15.6,171.27,15.55Zm-.14-.06a.75.75,0,0,0,.22-.11c0-.05,0-.05,0-.05s0,0,0,0S171.16,15.41,171.13,15.49Zm.2,0c0,.06.11,0,0,0s0,0,0,0S171.33,15.63,171.33,15.49Zm.3-.33a.69.69,0,0,0-.25.17C171.49,15.3,171.6,15.27,171.63,15.16Zm0,.17c0,.05-.11,0-.08.08S171.66,15.38,171.6,15.33Zm0,.16c-.08,0-.08,0-.11.06s.11,0,.11-.06,0,0,0,0,0,0,0,0S171.63,15.47,171.63,15.49Zm.05-.27c0-.06,0-.06,0-.08s0,0-.05,0v.11Zm.11.16c.06,0,.09,0,.09-.05s-.06,0-.09.05S171.82,15.41,171.79,15.38Zm1.49.77c-.08.11-.08.44,0,.5A1.56,1.56,0,0,0,173.28,16.15Zm0,.55c0,.06,0,.09.06.09S173.28,16.73,173.25,16.7Z"/><path class="cls-3" d="M53.15,23.52V16.27h1.93l2.65,4.06h0V16.27h1.79v7.25H57.73L55,19.46h0v4.06Z"/><path class="cls-3" d="M60.55,19.89a3.57,3.57,0,1,1,7.12,0,3.57,3.57,0,1,1-7.12,0Zm5.16,0c0-1.33-.58-2.14-1.59-2.14s-1.61.81-1.61,2.14.58,2.2,1.61,2.2S65.71,21.22,65.71,19.89Z"/><path class="cls-3" d="M179.48,21.91l1.45-.9a2.25,2.25,0,0,0,1.9,1.09c.6,0,1-.17,1-.62s-.58-.64-1.29-.82c-1.19-.3-2.77-.6-2.77-2.25,0-1.48,1.12-2.29,2.77-2.29a3.7,3.7,0,0,1,3,1.42l-1.31,1.08a2.48,2.48,0,0,0-1.73-.91c-.56,0-.85.18-.85.52s.57.66,1.29.84c1.18.28,2.77.64,2.77,2.27,0,1.16-.81,2.3-3,2.3A3.58,3.58,0,0,1,179.48,21.91Z"/><path class="cls-3" d="M186.89,23.5V16.26h2V23.5Z"/><path class="cls-3" d="M190.26,23.5V16.26h1.93l2.66,4.06h0V16.26h1.79V23.5h-1.81l-2.78-4.05h0V23.5Z"/><path class="cls-3" d="M200.81,23.5V16.26H206v1.62h-3.21v1.18h2.29v1.53h-2.29v1.34h3.38V23.5Z"/><path class="cls-3" d="M207.12,23.5V16.26h2v5.67h3V23.5Z"/><path class="cls-3" d="M213,23.5V16.26h2v5.67h3V23.5Z"/><path class="cls-3" d="M218.2,23.5l2.56-7.27h1.83l2.56,7.27h-2l-.44-1.35h-2.28L220,23.5Zm2.71-2.74h1.38l-.66-2h0Z"/><path class="cls-3" d="M227.46,17.88V16.52H227v-.25h1.27v.25h-.5v1.36Z"/><path class="cls-3" d="M228.47,17.88V16.27h.36l.43,1.28h0l.42-1.28h.36v1.61h-.26v-1.2h0a2.34,2.34,0,0,1-.09.33l-.32.87h-.24l-.31-.87c0-.12-.06-.19-.1-.35h0v1.22Z"/></g></g></svg>